<svg id="visual" viewBox="0 0 960 300" width="960" height="300" xmlns="http://www.w3.org/2000/svg" xmlns:xlink="http://www.w3.org/1999/xlink" version="1.1"><rect x="0" y="0" width="960" height="300" fill="#131B3A"></rect><path d="M0 199L22.8 201.5C45.7 204 91.3 209 137 215.2C182.7 221.3 228.3 228.7 274 227.5C319.7 226.3 365.3 216.7 411.2 208.7C457 200.7 503 194.3 548.8 195.8C594.7 197.3 640.3 206.7 686 207.8C731.7 209 777.3 202 823 207.5C868.7 213 914.3 231 937.2 240L960 249L960 301L937.2 301C914.3 301 868.7 301 823 301C777.3 301 731.7 301 686 301C640.3 301 594.7 301 548.8 301C503 301 457 301 411.2 301C365.3 301 319.7 301 274 301C228.3 301 182.7 301 137 301C91.3 301 45.7 301 22.8 301L0 301Z" fill="#ffffff" stroke-linecap="round" stroke-linejoin="miter"></path></svg>