<svg id="visual" viewBox="0 0 900 600" width="900" height="600" xmlns="http://www.w3.org/2000/svg" xmlns:xlink="http://www.w3.org/1999/xlink" version="1.1"><rect x="0" y="0" width="900" height="600" fill="#ffffff"></rect><path d="M0 482L13.7 466.7C27.3 451.3 54.7 420.7 82 407.8C109.3 395 136.7 400 163.8 412.5C191 425 218 445 245.2 458.7C272.3 472.3 299.7 479.7 327 471.3C354.3 463 381.7 439 409 424.8C436.3 410.7 463.7 406.3 491 418.8C518.3 431.3 545.7 460.7 573 473.2C600.3 485.7 627.7 481.3 654.8 467.2C682 453 709 429 736.2 429.8C763.3 430.7 790.7 456.3 818 456.8C845.3 457.3 872.7 432.7 886.3 420.3L900 408L900 601L886.3 601C872.7 601 845.3 601 818 601C790.7 601 763.3 601 736.2 601C709 601 682 601 654.8 601C627.7 601 600.3 601 573 601C545.7 601 518.3 601 491 601C463.7 601 436.3 601 409 601C381.7 601 354.3 601 327 601C299.7 601 272.3 601 245.2 601C218 601 191 601 163.8 601C136.7 601 109.3 601 82 601C54.7 601 27.3 601 13.7 601L0 601Z" fill="#F7F8FC" stroke-linecap="round" stroke-linejoin="miter"></path></svg>