<svg width="101" height="75" fill="none" xmlns="http://www.w3.org/2000/svg"><g clip-path="url(#clip0)"><path opacity=".1" d="M61.642 10.272c-4.295 3.622-9.865 3.388-14.747 1.503-4.881-1.885-9.365-5.239-14.122-7.623-3.987-2-8.171-3.312-12.406-3.896C14.305-.58 7.535.44 3.312 6.293c-4.703 6.52-4.342 18.28.743 24.261 2.588 3.044 5.976 4.539 8.931 6.919 2.955 2.38 5.692 6.324 5.44 10.913-.233 4.243-2.942 7.506-5.745 9.551-2.167 1.58-4.834 3.306-5.095 6.58-.253 3.167 1.99 5.65 4.133 7.06 6.988 4.605 15.6 4.56 22.564-.115 2.483-1.67 4.764-3.889 7.369-5.188 6.839-3.413 14.375.023 21.617 1.28 6.129 1.064 12.414.512 18.386-1.612 3.586-1.276 7.186-3.23 9.706-6.86 1.817-2.62 2.949-5.936 4.011-9.211a413.885 413.885 0 003.268-10.55c.627-2.126 1.244-4.293 1.407-6.567.293-4.121-.944-8.196-2.628-11.674-4-8.259-10.736-14.066-18.03-15.541-7.295-1.475-15.013 1.406-20.67 7.71" fill="#FFDA63"/><path opacity=".1" d="M45.46 50.08c11.641 0 21.077-.427 21.077-.955s-9.436-.956-21.077-.956c-11.64 0-21.077.428-21.077.956s9.437.956 21.077.956z" fill="#FFDA63"/><path d="M44.752 45.178c-10.537 0-19.109-8.515-19.109-18.982 0-10.468 8.57-18.983 19.109-18.983 10.54 0 19.105 8.516 19.105 18.983 0 10.466-8.572 18.982-19.105 18.982zm0-37.78c-10.435 0-18.923 8.433-18.923 18.798 0 10.365 8.486 18.798 18.923 18.798 10.437 0 18.922-8.433 18.922-18.798 0-10.366-8.491-18.799-18.922-18.799z" fill="#fff"/><path d="M44.752 40.919c-8.171 0-14.82-6.605-14.82-14.723s6.649-14.723 14.82-14.723c8.172 0 14.82 6.605 14.82 14.723s-6.648 14.723-14.82 14.723zm0-29.261c-8.07 0-14.635 6.522-14.635 14.538s6.565 14.538 14.635 14.538 14.635-6.522 14.635-14.538c0-8.017-6.568-14.538-14.635-14.538z" fill="#fff"/><path d="M44.752 36.343c-2.02 0-3.995-.595-5.675-1.71a10.162 10.162 0 01-3.762-4.554 10.085 10.085 0 01-.581-5.863 10.127 10.127 0 012.795-5.196 10.237 10.237 0 015.23-2.777 10.277 10.277 0 015.902.578 10.2 10.2 0 014.584 3.737 10.1 10.1 0 011.722 5.638 10.126 10.126 0 01-2.996 7.171 10.26 10.26 0 01-7.219 2.976zm0-20.11c-1.983 0-3.922.584-5.572 1.679a9.978 9.978 0 00-3.693 4.471 9.903 9.903 0 00-.571 5.756 9.942 9.942 0 002.745 5.101 10.05 10.05 0 005.134 2.727c1.946.385 3.962.187 5.795-.567a10.016 10.016 0 004.5-3.67 9.916 9.916 0 001.69-5.534 9.942 9.942 0 00-2.94-7.042 10.075 10.075 0 00-7.088-2.921z" fill="#fff"/><path opacity=".1" d="M91 37.626c.732 0 1.325-.195 1.325-.435s-.593-.436-1.325-.436-1.325.195-1.325.436c0 .24.593.435 1.325.435zM16.58 61.402c4.31 0 7.804-.57 7.804-1.273 0-.702-3.494-1.272-7.804-1.272-4.31 0-7.804.57-7.804 1.273 0 .702 3.494 1.272 7.804 1.272z" fill="#FFDA63"/><g opacity=".1" fill="#000"><path opacity=".1" d="M30.26 24.881H6.452c-.33.002-.646.132-.879.364a1.236 1.236 0 00-.365.873v14.944c0 .328.132.641.365.873.233.232.55.362.88.363h18.676s.483 2.552-1.106 2.827c0 0 3.56.253 2.938-2.827h3.3c.329 0 .645-.131.878-.363.233-.232.364-.546.365-.873V26.118a1.236 1.236 0 00-.365-.873 1.252 1.252 0 00-.879-.364z"/><g opacity=".2"><path opacity=".2" d="M27.473 28.848H9.239a.525.525 0 00-.526.523v.122c0 .289.235.523.526.523h18.234c.29 0 .526-.234.526-.523v-.122a.525.525 0 00-.526-.523zM27.473 34.067H9.239a.525.525 0 00-.526.523v.122c0 .289.235.523.526.523h18.234c.29 0 .526-.234.526-.523v-.122a.525.525 0 00-.526-.523zM24.36 36.676H9.24a.525.525 0 00-.527.523v.122c0 .29.235.523.526.523H24.36c.291 0 .527-.234.527-.523V37.2a.525.525 0 00-.527-.523zM16.549 31.458h-7.31a.525.525 0 00-.526.523v.122c0 .289.235.523.526.523h7.31c.29 0 .527-.234.527-.523v-.122a.525.525 0 00-.527-.523z"/></g></g><path d="M30.468 24.778H6.659c-.33.001-.646.132-.879.363a1.236 1.236 0 00-.365.873V40.96c0 .327.132.641.365.873.233.231.55.362.88.363h18.676s.484 2.551-1.106 2.825c0 0 3.56.254 2.938-2.825h3.3c.33-.001.645-.132.878-.363.233-.232.365-.546.365-.873V26.014c0-.327-.132-.64-.364-.873a1.252 1.252 0 00-.879-.363z" fill="#fff"/><g opacity=".2" fill="#FFDA63"><path opacity=".2" d="M27.68 28.745H9.446a.525.525 0 00-.526.523v.122c0 .289.236.523.526.523H27.68c.29 0 .527-.234.527-.523v-.122a.525.525 0 00-.527-.523zM27.68 33.964H9.446a.525.525 0 00-.526.523v.122c0 .289.236.523.526.523H27.68c.29 0 .527-.234.527-.523v-.122a.525.525 0 00-.527-.523zM24.567 36.574H9.447a.525.525 0 00-.527.523v.122c0 .289.236.523.526.523h15.121c.291 0 .527-.234.527-.523v-.122a.525.525 0 00-.527-.523zM16.756 31.355h-7.31a.525.525 0 00-.526.523V32c0 .288.236.523.526.523h7.31c.291 0 .527-.235.527-.524v-.121a.525.525 0 00-.527-.523z"/></g><path d="M21.631 24.54l-1.32 2.788s-.195.524-.32.62c-.125.097-.68 1.753-.68 1.753l-1.414 2.172-.093.147-.557-.152-.389-1.445.024-.42v-.053s.876-.91 1.07-.979c0 0 .152.018.445-.687.292-.704.557-.858.557-.858l.152-.51 1.64-2.594s1.374-1.958 1.748-1.09c.375.87-.863 1.309-.863 1.309zM16.151 44.342a.311.311 0 01-.044.134c-.152.22-1.013 4.731-1.013 4.731.069.305-.125.912-.25 1.188-.127.275-.404 1.71-.404 1.71s-.069 3.09-.249 3.573c-.18.482.058 1.517.058 1.517-.018.476.27.979.44 1.235.014.017.024.034.034.047.056.08.093.125.093.125a.719.719 0 00.194.239 2.22 2.22 0 00.817.356l.027.005c.112.025.186.035.186.035l.069.368-.736.152-1.402.092s-1.653.125-1.277-.607c.026-.05.048-.102.067-.155a1.33 1.33 0 00.038-.109c.226-.703.074-1.557.074-1.557l-.323-2.486c-.527-2.317.415-4.898.415-4.898s-.082-.206.099-.73 0-1.669 0-1.669-.093-1.476-.222-2.207a4.437 4.437 0 01-.05-.93c.006-.182.023-.363.05-.544l3.167-.417s.178.51.142.802z" fill="#FFD2C6"/><path opacity=".1" d="M16.105 59.61l-.735.151-1.402.093s-1.653.124-1.278-.607c.026-.05.05-.102.068-.155.014-.035.027-.072.038-.11.286.01.569.066.836.169.47.184.825-.29.825-.29l.229-.434.033-.063c.056.08.093.124.093.124a.74.74 0 00.233.268l-.04.081-.221.461s.284.029.673.093a.303.303 0 00.366-.2l.027.006c.111.025.186.034.186.034l.07.38z" fill="#000"/><path d="M16.785 59.954c-.055.248-1.603.325-1.603.325s-.862-.083-1.103.117c-.242.2-.953.152-.98.152-.029 0-.403-.014-.55-.682-.142-.652.192-.765.208-.77.3.004.597.06.876.168.47.185.826-.29.826-.29l.261-.497c.056.08.093.125.093.125a.73.73 0 00.233.268l-.26.546s.284.028.673.092c.31.05.378-.202.392-.304a.32.32 0 000-.041l.54.152a.556.556 0 01.395.64z" fill="#626696"/><path d="M19.703 47.63c-.037.22-.075.791-.075.791.13.478-.204 1.614-.204 1.614l-.166.645c.074.83-.458 2.852-.458 2.852s-.356 1.876-.542 2.686c-.11.45-.078.922.093 1.352.009.023.015.034.015.034 0 .015.006.03.01.045l.02.065a.997.997 0 00.186.308c.03.037.064.07.1.102l.005.005c.174.154.374.276.59.361l.093.037a2.804 2.804 0 00.328.1l-.075.433-.98-.249-1.315-.423-.65-.37s.008-.034.02-.102v-.01l.02-.102c.11-.563.362-2.159.236-3.33-.157-1.453.452-3.459.6-3.937.089-.273.127-.56.112-.846-.241-.35-.297-1.747-.297-1.747s-.444-.902-.811-1.859a4.866 4.866 0 01-.265-.966 3.362 3.362 0 01-.054-.707s2.983-2.704 3.31-.086c.01.093.021.174.031.257.286 2.393.158 2.834.123 3.047z" fill="#FFD2C6"/><path opacity=".1" d="M19.703 58.63l-.075.433-.98-.249-1.315-.423-.65-.37s.008-.034.02-.102v-.01l.02-.102.093-.01h.007c.187-.017.376.009.551.074.214.08.494.172.552.133a.706.706 0 01.315-.055l.136-.297.02-.046a.981.981 0 00.185.309c.032.038.068.074.105.107l-.006.105-.007.148c.147.094.305.166.472.217.043.01.088.01.132 0l.093.037a2.827 2.827 0 00.332.1z" fill="#000"/><path d="M19.215 59.554c-.273-.078-.934-.202-1.04-.106-.107.097-1.022 0-1.022 0a.56.56 0 01-.473-.276c-.185-.295-.036-1.247-.036-1.247l.068-.006.113-.011h.008a1.23 1.23 0 01.55.074c.214.079.494.17.552.133a.692.692 0 01.315-.056l.156-.342a.993.993 0 00.186.308c.032.038.067.074.105.107l-.014.254c.147.092.306.165.472.216a.187.187 0 00.227-.071.143.143 0 00.016-.038c.009.015.099.046.388.128.313-.018.616.118.756.54.139.423-1.058.471-1.327.393z" fill="#626696"/><path opacity=".1" d="M16.152 44.342a5.735 5.735 0 00-.17.05c-.133.041-.27.07-.409.086-.875.123-2.321.05-2.779.02.006-.181.023-.363.05-.543l3.167-.417s.176.512.141.804z" fill="#000"/><path d="M18.911 43.578s-1.162.18-2.108.385c-.315.069-.607.14-.822.21a2.54 2.54 0 01-.41.085c-1.053.147-2.923.011-2.923.011-.514-1.654.624-3.738.624-3.738-.027-.166.237-.676.237-.676l.005-.016.161-.59h4.319l.053.253.11.517.677 3.198.077.361z" fill="#626696"/><path opacity=".1" d="M19.58 44.582l-.026.01-.505.223c-.547.251-2.184.298-2.756.303a3.361 3.361 0 01-.054-.707s2.983-2.704 3.31-.086c.01.093.021.174.031.257z" fill="#000"/><path d="M19.66 44.326l-.106.047-.505.223c-.558.254-2.247.3-2.786.302h-.142c-.25-.008-.5-.24-.5-.301 0-.034-.026-.197-.048-.337l-.035-.21s-1.115-.477-1.68-.864c-.425-.287-.318-2.325-.235-3.35.029-.354.054-.586.054-.586l4.372.254.612.035.351.077.093.02s.25 1.82.372 1.972c.12.151.042.662.027.953 0 .124-.014.248-.04.369 0 0 .18.51.137.797-.02.202 0 .405.059.6z" fill="#626696"/><path d="M14.98 29.204c.99 0 1.792-.797 1.792-1.78 0-.982-.802-1.779-1.791-1.779-.99 0-1.791.797-1.791 1.78 0 .982.802 1.779 1.79 1.779z" fill="#FFD2C6"/><path d="M14.108 28.167s.125 1.686-.222 2.072c-.346.387-1.25 1.117-1.25 1.117l.28 1.145 1.569.18 1.832-1.945-.416-.51s-.32-1.077-.056-1.615-1.737-.444-1.737-.444z" fill="#FFD2C6"/><path opacity=".1" d="M17.897 31.873l-.093.148-.557-.152-.389-1.446.024-.42.114-.163s.611.015.585.566c-.027.485.25 1.283.316 1.467zM19.105 39.855s-.442.098-.948.164c-.507.065-1.09.098-1.33-.04-.402-.236-2.58-.169-3.206-.145-.044 0-.08 0-.107.005l.161-.59h4.319l.053.253.613.035.35.078c.06.143.095.24.095.24z" fill="#000"/><path d="M16.883 29.95s.611.013.584.565c-.028.552.333 1.504.333 1.504l-.14.317s-.194.772-.041.966c.152.193.708.193.389 1.78 0 0-.069 1.185.097 1.572.167.386.167 1.31.416 1.696.25.387.584 1.284.584 1.284s-1.806.4-2.277.123c-.472-.276-3.375-.135-3.375-.135s.014-.484 0-.538a.458.458 0 01.07-.353c.093-.13.25-.351.166-.544-.084-.193.209-.478.056-.777-.153-.298-.34-.358-.302-.522.037-.163-.06-.384-.17-.522-.11-.137-.862-1.596-.862-1.596l-.124-.683s-.967-.704-.95-1.035c.018-.331.367-.79.367-.79l.928-.907s.514.554 1.013.36c.5-.196 1.578-1.118 1.578-1.118s.384-.207.412-.358c.028-.151.264-.014.264-.014s.347-.189.417-.123c.07.067.372.123.372.123l.195-.276z" fill="#FFCDE5"/><path d="M11.634 32.823l-.296.23s-.3.539-.371 1.504c-.07.965-.372 2.33-.372 2.33l-.583 1.036s-.96 1.999-1.085 2.53c-.125.53-.695 1.427-.695 1.427s-1.93 1.723-.583 2.03c1.347.306 1.388-1.372 1.388-1.372s.315-.345.366-.58c.051-.234 1.759-3.235 1.759-3.235s.598-.807.472-1.234c0 0 .778-1.816.778-2.272a8.015 8.015 0 00-.125-1.13l.125-.952-.778-.312z" fill="#FFD2C6"/><path opacity=".1" d="M15.634 36.626s-1.362.708-1.625.745c-.264.037 1.152-.148 1.152-.148l.473-.597zM16.744 37.178s-1.806.607-2.6.497c.003 0 1.975.372 2.6-.497z" fill="#000"/><path opacity=".1" d="M16.855 37.377s-1.625 1.014-2.583.85c0 0 2.236.44 2.583.207l-1-.277s1.112-.583 1-.78zM14.984 24.294c-.47-.093-.991-.037-1.367.256-.279.218-.465.553-.778.712-.165.07-.335.129-.507.178a1.462 1.462 0 00-.721.63 1.448 1.448 0 00-.174.938c.05.277.179.526.242.796.113.481.014.986-.11 1.465a15.352 15.352 0 01-1.546 3.803.397.397 0 00-.077.255.37.37 0 00.093.164c.642.738 1.686.99 2.667 1.023.361.012.743 0 1.056-.175.205-.116.381-.277.516-.47a2.48 2.48 0 00.48-1.605c-.026-.461-.185-.93-.065-1.378a.368.368 0 01.084-.17c.105-.106.278-.079.43-.096.408-.047.672-.474.72-.878.048-.404-.054-.813-.056-1.22a2.543 2.543 0 01.484-1.502c.136-.184.31-.369.355-.6.057-.29-.113-.505-.26-.738-.227-.358-.338-.776-.684-1.049a1.855 1.855 0 00-.782-.34z" fill="#000"/><path d="M14.872 24.183c-.469-.092-.99-.037-1.367.258-.278.216-.464.553-.777.712a4.5 4.5 0 01-.507.177 1.463 1.463 0 00-.72.63 1.448 1.448 0 00-.175.938c.05.277.178.526.242.796.114.482.013.985-.11 1.464-.34 1.33-.86 2.61-1.542 3.803a.388.388 0 00-.077.255.354.354 0 00.093.163c.643.738 1.687.99 2.667 1.024.361.012.743 0 1.057-.174.204-.117.38-.278.515-.47.34-.464.51-1.03.479-1.603-.027-.461-.186-.93-.066-1.379a.368.368 0 01.083-.169c.106-.107.279-.08.432-.092.408-.047.67-.474.719-.88.048-.404-.053-.81-.056-1.219a2.543 2.543 0 01.483-1.506c.135-.184.308-.369.354-.602.057-.29-.112-.503-.259-.738-.227-.357-.338-.775-.686-1.047a1.846 1.846 0 00-.782-.34z" fill="#985C7E"/><path opacity=".1" d="M14.272 41.432s.357 1.655.949 2.106l-.949-2.106z" fill="#000"/><g opacity=".1" fill="#000"><path opacity=".1" d="M11.432 27.267a3.665 3.665 0 00-.062-.193c.018.064.04.13.062.193zM16.498 25.822a.59.59 0 01-.007.156c-.047.234-.22.415-.355.602a2.536 2.536 0 00-.484 1.5c0 .408.103.815.055 1.22-.048.405-.311.83-.719.88-.15.017-.326-.012-.43.091a.369.369 0 00-.084.17c-.118.448.039.916.065 1.378a2.48 2.48 0 01-.477 1.603 1.607 1.607 0 01-.516.47c-.318.17-.695.185-1.057.174-.964-.033-1.99-.277-2.634-.988a.251.251 0 00-.016.133.354.354 0 00.093.163c.643.738 1.686.99 2.667 1.023.361.013.743 0 1.057-.174.204-.117.38-.278.515-.47.34-.464.51-1.03.478-1.602-.027-.462-.185-.931-.065-1.38a.368.368 0 01.083-.168c.106-.107.279-.08.432-.093.407-.047.67-.474.719-.879.048-.405-.053-.811-.056-1.22a2.542 2.542 0 01.483-1.5c.135-.185.308-.37.354-.602a.68.68 0 00-.1-.487z"/></g><path d="M48.404 70.476s-3.533-.212-3.116 2.247c0 0-.082.435.314.632 0 0 .007-.184.362-.12.127.021.255.028.384.019a.804.804 0 00.47-.193s.992-.408 1.378-2.02c0 0 .286-.352.279-.442l-.596.252s.203.427.043.783c0 0-.019-.767-.134-.748-.023 0-.31.147-.31.147s.35.745.086 1.285c0 0 .1-.917-.195-1.23l-.42.242s.41.77.132 1.397c0 0 .072-.962-.22-1.337l-.38.294s.385.758.15 1.278c0 0-.03-1.12-.233-1.2 0 0-.333.291-.383.411 0 0 .263.554.1.84 0 0-.1-.746-.186-.748 0 0-.332.494-.366.83.016-.313.114-.617.285-.881a.997.997 0 00-.507.261s.051-.35.589-.38c0 0 .278-.375.347-.398 0 0-.535-.044-.859.1 0 0 .285-.331.958-.185l.37-.305s-.703-.092-1.002.01c0 0 .344-.292 1.104-.08l.409-.243s-.6-.128-.958-.082c0 0 .377-.202 1.078.018l.292-.131s-.44-.086-.568-.099c-.128-.013-.136-.049-.136-.049.279-.046.564-.014.826.093 0 0 .624-.23.613-.268z" fill="#FFDA63"/><path opacity=".1" d="M45.97 73.99c1.381 0 2.5-.188 2.5-.42 0-.232-1.119-.42-2.5-.42s-2.5.188-2.5.42c0 .232 1.119.42 2.5.42z" fill="#FFDA63"/><path d="M76.087 67.469s-3.529-.211-3.117 2.248c0 0-.082.435.314.632 0 0 .007-.184.362-.12.127.02.256.026.385.018a.796.796 0 00.469-.193s.993-.407 1.379-2.02c0 0 .286-.352.278-.442l-.6.258s.204.427.044.782c0 0-.02-.767-.134-.749-.023 0-.31.148-.31.148s.35.744.087 1.286c0 0 .1-.917-.196-1.232l-.42.244s.41.768.132 1.396c0 0 .071-.963-.22-1.337l-.38.292s.384.758.15 1.279c0 0-.031-1.121-.233-1.205 0 0-.332.291-.383.411 0 0 .263.554.1.84 0 0-.1-.745-.186-.75 0 0-.331.495-.365.831.016-.313.114-.617.285-.88a1.002 1.002 0 00-.508.26s.053-.348.59-.38c0 0 .279-.374.347-.397 0 0-.534-.045-.86.098 0 0 .287-.33.958-.18l.371-.304s-.704-.092-1.002.01c0 0 .343-.291 1.104-.08l.408-.242s-.6-.129-.958-.082c0 0 .377-.202 1.078.017l.293-.13s-.44-.086-.57-.1c-.129-.014-.135-.049-.135-.049a1.53 1.53 0 01.826.092s.628-.231.617-.27z" fill="#FFDA63"/><path opacity=".1" d="M73.653 70.983c1.381 0 2.5-.188 2.5-.42 0-.232-1.119-.42-2.5-.42s-2.5.188-2.5.42c0 .232 1.119.42 2.5.42zM78.752 41.47c3.977 0 7.202-.525 7.202-1.173s-3.225-1.173-7.202-1.173-7.2.525-7.2 1.173 3.223 1.173 7.2 1.173z" fill="#FFDA63"/><path d="M87.136 17.158c.295-.98 0-1.961 0-1.961v-.923s.336-1.809-1.16-2.97l-.994-.869s-.557-.474-.718-.505a.734.734 0 00-.093-.013l-.03-.017a2.953 2.953 0 01-.217-.455.427.427 0 00.354-.12.462.462 0 00.084-.138c.057-.128.067-.283.116-.42a.977.977 0 01.186-.301l-.03.048c.14-.173.324-.322.455-.506a1.1 1.1 0 00.072-.113l-.02.023c.186-.291.24-.645.292-.985a.884.884 0 00.006-.352 1.17 1.17 0 00-.1-.223c-.215-.443-.21-.999-.557-1.352-.259-.265-.65-.346-1.021-.391-.372-.045-.759-.071-1.076-.264a1.168 1.168 0 00-.292-.16.242.242 0 00-.287.107.185.185 0 01-.038.076.124.124 0 01-.11.007l-.493-.131.006.025h-.012l.018.077c.015 0 .032 0 .046.027l-.079.12A1.226 1.226 0 0181 4.408v.024h-.006c-.01.139.148.228.197.358a.27.27 0 010 .176.399.399 0 01-.093.14c-.176.171-.399.137-.6.246a.128.128 0 00-.073.08.062.062 0 00-.007.045c.008.02.022.038.04.05a.928.928 0 00.192.119l-.057.055a2.188 2.188 0 00-.584 1.988 2.185 2.185 0 001.345 1.583c.008.038.013.076.019.118V9.4l.005.053-.664.276a.53.53 0 01-.475-.303c-.154-.318-.7 0-.7 0s-1.664-.125-2.28.18c0 0-.994-.415-1.133-.442-.14-.028-.35-.139-.448-.11-.099.027-.224-.185-.294-.167-.07.019-.093-.137-.321-.193-.228-.055-.308.014-.557-.235-.25-.249-2.295-1.229-2.295-1.229l-.923-.746-.98-.773-.017.032-.019-.072a9.179 9.179 0 00-.363-1.134c-.063-.15-.093-.339-.175-.24-.052.06-.141-.07-.279-.159a.232.232 0 00-.345.1c-.763 1.187-1.036 1.273-.594 1.707.393.388.655.73.976.83l.038.012a.054.054 0 01-.021 0l1.857 2.21s1.343 1.16 2.267 1.533c.924.373.853.483.853.483s2.798 1.409 3.232 1.384c.433-.025.35 2.887.168 3.356-.182.47-.476 3.867-.476 3.867s-.278.718.014 1.215c0 0 .065.952.007 1.18-.256.39-.619 1.052-.678 1.734 0 .036-.007.07-.011.105a.24.24 0 01-.066.054l.062-.018c-.028.283-.09.561-.186.83a3.363 3.363 0 00-.228 1.199v2.194l-.185 1.361s-.224 1.03 0 1.27a.58.58 0 01.123.424.78.78 0 00.143.493.373.373 0 01.093.318c-.075.239.11 2.78.11 2.78s-.055.7-.129.737c-.074.038.124.805.124.805s-.755.626-.563.958l.193.294-.051.05-.032.032a.296.296 0 00-.192-.036 7.175 7.175 0 01-.76.672c-.341.245-1.269.599-1.269.599l-.732.059h-.014s-.35-.032-.154.506c.196.539 1.95.37 1.95.37L76 39.643s1.827.008 2.35-.106c.22-.05.271-.165.257-.283l-.005-.005a.723.723 0 00-.163-.321l.034-.37c.775-.443-.22-1.316-.22-1.316s.34-.739.516-.976c.175-.237.174-3.756.174-3.756s.093-1.271-.15-1.568a.526.526 0 01.262-.479c.172-.117.694-1.73 1.104-3.07l.258 1.578s-.056.755.112.976a.375.375 0 01.07.294c-.042.213-.029.432.037.639a.412.412 0 00.135.227c.15.074.159.337.214.392.056.055.401-.078.42.124.01.178.01.356 0 .534l.112 3.277s-.185.277-.223.995c-.016.31-.075.486-.135.587a.298.298 0 00.028.352l.032.037-.138.106a.3.3 0 00-.085.369.295.295 0 00-.063.37.524.524 0 00-.278.136 2.279 2.279 0 01-.492.493c-.275.208-.537.43-.786.668a1.127 1.127 0 01-.459.369.747.747 0 01-.138.04c-.371.075-.252.457.046.517s1.287.363 2.057.184c0 0 .229.093.564-.077.335-.17 1.098-.37 1.098-.37s.42 0 .476-.165a.63.63 0 00.024-.161l.012-.012-.011-.01a2.171 2.171 0 00-.062-.534 4.38 4.38 0 00-.131-.392.14.14 0 00.013-.02c.16-.268-.106-.922-.106-.922.088-.137.194-.26.316-.369.15-.11.542-2.982.542-2.982s-.019-.738.186-1.068c.204-.33-.279-2.339-.279-2.339s-.205-.461-.13-.626c.075-.165-.075-.773-.075-.773v-.725a.794.794 0 00-.043-.255c-.058-.17-.143-.498-.05-.738.13-.331.429-2.375.429-2.375s-.233-.902.108-1.62c.027-.057.058-.113.093-.166.252-.395.177-1.096.052-1.66a8.605 8.605 0 00-.06-.253l-.027-.098.04-.017s0-.054.012-.146a1.026 1.026 0 00.673-.461s.854-.953 1.61-1.353c.755-.4.811-.98.811-.98-.112-.195.2-.982.2-.982l-.032-.85zm-2.458 1.27l-.808.931v-.005c-.21-.29.196-.94.196-.94l.668-1.486c-.005.192-.029.36-.087.44-.186.249.335.663.335.663-.28-.003-.307.397-.307.397h.003z" fill="url(#paint0_linear)"/><path d="M70.45 6.228l-.44.85a1.713 1.713 0 01-.41-.086 1.56 1.56 0 01-.964-.83c-.394-.865.258-1.424.562-1.588.303-.165.585-.354.812.184.143.368.263.744.358 1.127l.082.343zM84.464 10.656l-.704 1.043s-3.33 1.578-2.693-.277c.279-.816.313-1.414.263-1.827v-.011c-.065-.517-.26-.738-.26-.738s3.245-1.65 2.762-.521c-.099.234-.138.49-.115.742.04.365.16.717.35 1.03.113.2.246.386.397.559z" fill="#CC818C"/><path d="M83.455 31.3s.48 1.994.279 2.324c-.2.329-.186 1.06-.186 1.06s-.387 2.855-.535 2.965a1.756 1.756 0 00-.313.37s.263.645.105.913a.218.218 0 01-.105.092c-.247.103-1.158-.355-1.678-.637a.284.284 0 01-.137-.163.288.288 0 01.085-.316.299.299 0 01.084-.369l.137-.105-.032-.036a.3.3 0 01-.028-.351c.06-.1.117-.277.133-.582.037-.714.22-.988.22-.988l-.11-3.258c.01-.176.01-.353 0-.53-.018-.201-.359-.068-.414-.123-.054-.056-.065-.316-.211-.39a.409.409 0 01-.134-.225 1.303 1.303 0 01-.038-.636.372.372 0 00-.068-.291c-.166-.22-.11-.97-.11-.97l-.255-1.568c-.405 1.331-.92 2.935-1.09 3.05a.529.529 0 00-.258.477c.24.292.147 1.555.147 1.555s0 3.495-.172 3.733c-.173.238-.51.97-.51.97s.988.872.212 1.312l-.009.005c-.792.439-2.43-.787-2.43-.787l.17-.17.05-.049-.186-.293c-.19-.33.558-.952.558-.952s-.2-.768-.126-.805c.074-.037.126-.732.126-.732s-.181-2.525-.108-2.762a.367.367 0 00-.087-.316.784.784 0 01-.141-.49.58.58 0 00-.121-.42c-.221-.238 0-1.263 0-1.263l.186-1.354v-2.157c0-.413.075-.824.222-1.21.112-.314.18-.642.2-.974.061-.694.436-1.369.689-1.753.134-.203.233-.325.233-.325l5.894-.23a7.919 7.919 0 00.245.874c.124.563.198 1.26-.052 1.652a1.293 1.293 0 00-.093.165c-.337.713-.107 1.61-.107 1.61s-.294 2.029-.423 2.36c-.093.233-.008.559.05.729a.808.808 0 01.042.252v.72s.148.604.074.77c-.073.164.126.622.126.622z" fill="#444053"/><path opacity=".1" d="M83.727 24.124a1.52 1.52 0 00-.093.165l-.332-.018c.032-.17-.194-1.761-.194-1.761l.669-.038c.124.566.2 1.264-.05 1.652z" fill="#000"/><path d="M83.782 24.073a1.293 1.293 0 00-.093.165l-.332-.018c.032-.17-.194-1.762-.194-1.762l.668-.037c.126.563.2 1.26-.05 1.652z" fill="#444053"/><path opacity=".05" d="M83.782 24.073a1.293 1.293 0 00-.093.165l-.332-.018c.032-.17-.194-1.762-.194-1.762l.668-.037c.126.563.2 1.26-.05 1.652z" fill="#000"/><path opacity=".1" d="M82.806 38.929a.217.217 0 01-.105.092c-.247.103-1.159-.355-1.678-.637a.285.285 0 01-.137-.163c.295-.053.49.277.49.277a.436.436 0 01.606.147c.254.369.797.214.797.214s.011.024.027.07z" fill="#000"/><path d="M82.96 40.05c-.056.165-.47.165-.47.165s-.743.211-1.074.375c-.33.165-.557.078-.557.078-.76.174-1.737-.127-2.031-.184-.294-.058-.41-.44-.046-.512a.734.734 0 00.136-.042c.182-.08.338-.208.453-.369a9.36 9.36 0 01.776-.664c.186-.137.35-.302.486-.49.433-.38.743.143.743.143a.438.438 0 01.607.147c.254.369.797.214.797.214s.093.247.143.425c.011.045.023.102.034.165.036.181.037.368.002.55z" fill="#FF748F"/><path d="M81.692 38.894a.05.05 0 00.05-.05.05.05 0 10-.1 0c0 .027.022.05.05.05zM81.259 39.296a.05.05 0 00.05-.05.051.051 0 00-.101 0c0 .027.023.05.05.05zM80.819 39.658a.05.05 0 000-.102.05.05 0 000 .102zM81.047 39.496a.05.05 0 00.051-.05.05.05 0 00-.051-.051.05.05 0 00-.051.05c0 .029.023.051.05.051zM81.485 39.082a.05.05 0 100-.101.05.05 0 00-.05.05c0 .028.022.051.05.051z" fill="#575988"/><path d="M82.96 40.05c-.056.165-.47.165-.47.165s-.743.21-1.074.375c-.33.164-.557.078-.557.078-.76.174-1.737-.128-2.031-.185-.294-.057-.41-.439-.046-.512a.741.741 0 00.136-.041c.322.108.657.17.996.184.75.032 1.345 0 1.345 0l.76-.242c.143-.087.303-.145.47-.17.167-.034.325-.102.464-.201.037.18.04.367.006.55z" fill="#DCE6F2"/><path opacity=".5" d="M81.068 40.524a.63.63 0 01-.126-.013l.01-.053a.803.803 0 00.456-.063c.068-.027.135-.058.201-.092.066-.034.158-.074.24-.105l.075-.026c.042-.013.084-.027.124-.045.023-.009.045-.02.067-.03a.76.76 0 01.171-.065.807.807 0 01.093-.012.808.808 0 00.084-.01.726.726 0 00.16-.059.784.784 0 01.171-.063l.041-.007a.197.197 0 00.119-.043l.04.038a.249.249 0 01-.15.06l-.038.006a.729.729 0 00-.16.059.629.629 0 01-.265.074.81.81 0 00-.086.01.706.706 0 00-.158.062l-.07.031a1.775 1.775 0 01-.128.046l-.073.026c-.08.03-.16.066-.236.102-.077.035-.135.063-.204.092a.988.988 0 01-.358.08z" fill="#575988"/><path opacity=".1" d="M81.246 31.433s.383-.554 1.036-.544c.654.009.935-.073.935-.073s-.42.246-.709.276c-.29.03-1.262.34-1.262.34zM81.467 31.56s.345-.237.543-.246c.198-.01.371-.028.371-.028a1.054 1.054 0 01-.303.147c-.17.046-.611.128-.611.128zM81.54 31.726s.52.041.525.178l-.525-.178zM76.696 24.011c.027.005.491-.48.523-.672a.47.47 0 01.203-.295s.3.119.032.483c-.267.364-.758.484-.758.484zM83.83 8.319c-.106.25-.2.268-.18.51-.123.129-.265.24-.421.329-.33.194-.688.574-1.099.574a2.19 2.19 0 01-.802-.15c-.065-.517-.261-.738-.261-.738s3.243-1.653 2.762-.525z" fill="#000"/><path d="M84.325 7.44c0 .432-.129.854-.37 1.213a2.21 2.21 0 01-3.379.33 2.177 2.177 0 01-.476-2.377c.166-.399.448-.74.81-.98a2.207 2.207 0 013.248.98c.11.265.167.548.167.835z" fill="#CC818C"/><path opacity=".1" d="M84.464 10.655L83.76 11.7s-3.33 1.577-2.693-.277c.279-.816.313-1.414.263-1.827h.006c.039.136.061.278.066.42.01.284.017.646.728.764 1.186.198 1.823-.539 1.935-.684.114.2.247.387.4.56zM70.45 6.228l-.44.85a1.713 1.713 0 01-.411-.086l-.038-.045c.18.068.787-1.07.787-1.07l.02.015c.05.198.081.336.081.336zM83.775 22.17c-1.422.614-6.342.093-6.342.093a.608.608 0 00.025-.16c.134-.202.234-.324.234-.324l5.893-.23s.096.26.19.622z" fill="#000"/><path d="M81.338 9.646l-.656.276a.526.526 0 01-.47-.302c-.151-.316-.69 0-.69 0s-1.644-.124-2.251.179c0 0-.981-.412-1.115-.44-.133-.026-.345-.137-.442-.109-.096.028-.22-.179-.29-.165-.068.014-.097-.138-.318-.192-.22-.054-.304.014-.552-.233-.25-.248-2.265-1.222-2.265-1.222l-.912-.738-.967-.768s-.608 1.138-.787 1.07l1.837 2.195s1.326 1.154 2.237 1.524c.912.37.843.48.843.48s2.763 1.4 3.191 1.373c.428-.027.346 2.868.166 3.335-.18.466-.47 3.842-.47 3.842s-.278.713.014 1.207c0 0 .07 1.015 0 1.194 0 0 4.95.526 6.354-.092 0 0 .207-2.278 0-2.567-.207-.288.194-.932.194-.932l.877-1.967 2.153-2.156s.331-1.798-1.146-2.952l-.982-.864s-.548-.472-.708-.501c-.16-.03-.101 0-.101 0s-.64.922-1.95.707c-.712-.12-.719-.48-.73-.764a1.72 1.72 0 00-.064-.418z" fill="#67647E"/><path opacity=".1" d="M84.035 17.033s-3.039.123-3.646 1.07c0 0 .787-.368 1.491-.26.704.108 2.156-.81 2.156-.81zM80.68 20.342s1.436.092 1.74-.206c.305-.298.305-.48.305-.48l-2.046.686zM84.326 14.124s-1.216 1.427.262 2.044l-.262-2.044zM77.13 11.366s.442.896.663.956l-.663-.956zM75.638 10.981s1.105.988 1.312 1.084c0 0-1.147-1.084-1.312-1.084zM80.044 10.035s-1.064 1.577-.371 2.538c-.006 0-.388-1.139.371-2.538z" fill="#000"/><path d="M82.725 21.987l-.325.304-.045.042-.376.354-.081.059c-1.532 1.091-1.84-.567-1.84-.567s-.677.44-.773.082c-.097-.357 1.578-.864 1.823-.836a.324.324 0 00.066 0c.121-.02.237-.061.344-.121a2.734 2.734 0 00.322-.195l.885.878z" fill="#CC818C"/><path opacity=".1" d="M84.382 7.44a2.171 2.171 0 01-1.074 1.876 1.274 1.274 0 01-.08-.158c-.078-.185-.127-.378-.206-.56-.089-.2-.215-.381-.37-.534a.235.235 0 00-.094-.068.268.268 0 00-.201.056.916.916 0 01-.307.133.328.328 0 01-.307-.092c-.085-.101-.073-.25-.048-.38.053-.285.143-.564.143-.852 0-.289-.11-.6-.362-.744-.223-.125-.5-.092-.748-.161a.804.804 0 01-.112-.039 2.202 2.202 0 012.4-.497c.404.164.75.443.994.803.244.36.375.784.375 1.218h-.003z" fill="#000"/><path d="M80.464 5.57c-.04.021-.084.059-.072.103.008.021.022.039.04.051.102.082.22.143.347.177.248.067.526.035.749.162.251.143.363.453.362.742-.001.289-.093.568-.144.852-.024.13-.037.276.05.382a.329.329 0 00.306.092.909.909 0 00.306-.133.266.266 0 01.201-.055.245.245 0 01.099.066c.157.153.283.335.371.535.08.185.129.376.207.56.069.189.2.35.371.456a.467.467 0 00.557-.058c.128-.14.124-.353.186-.533.11-.31.416-.506.607-.775.216-.301.279-.682.334-1.048a.875.875 0 00.005-.35 1.27 1.27 0 00-.097-.221c-.214-.44-.21-.992-.55-1.344-.257-.263-.645-.343-1.01-.387-.366-.044-.75-.072-1.064-.263a1.172 1.172 0 00-.288-.159.238.238 0 00-.283.106.185.185 0 01-.038.076.122.122 0 01-.108.007l-.486-.13.056.243a1.222 1.222 0 01-.517-.092c-.009.137.147.227.195.355a.326.326 0 01-.093.335c-.18.174-.4.14-.6.248z" fill="#585268"/><path opacity=".1" d="M78.492 38.358l-.02.22-.008.004c-.792.44-2.43-.786-2.43-.786l.17-.17a.295.295 0 01.074.23l.336.018.4.43s1.084.124 1.377.054h.101z" fill="#000"/><path d="M78.354 39.552c-.516.114-2.322.105-2.322.105l-1.008.16s-1.736.165-1.929-.369c-.193-.534.152-.503.152-.503h.013l.722-.058s.917-.352 1.253-.595c.265-.205.516-.428.75-.668 0 0 .302-.058.296.29l.335.017.4.43s1.084.125 1.378.055h.101l-.046.53.013.017c.064.082.352.487-.108.59z" fill="#FF748F"/><path d="M76.484 38.27a.05.05 0 00.051-.05.05.05 0 00-.05-.051.05.05 0 00-.052.05c0 .029.023.051.051.051zM75.185 38.83a.05.05 0 00.051-.05.05.05 0 00-.05-.052.05.05 0 100 .102zM74.517 39.032a.05.05 0 00.051-.05.05.05 0 00-.05-.051.05.05 0 00-.052.05c0 .029.023.051.051.051zM75.526 38.723a.05.05 0 00.052-.05.051.051 0 00-.103 0c0 .027.023.05.051.05zM74.85 38.932a.05.05 0 100-.102.05.05 0 100 .102zM75.87 38.565a.05.05 0 100-.102.05.05 0 000 .102zM76.211 38.417a.05.05 0 00.051-.05.05.05 0 00-.05-.05.05.05 0 00-.052.05c0 .028.023.05.051.05z" fill="#575988"/><path d="M78.354 39.553c-.516.113-2.322.105-2.322.105l-1.008.16s-1.736.165-1.929-.37c-.193-.534.152-.502.152-.502h.013c.11.142.332.304.768.312l1.248.05 1.294-.092s1.207-.037 1.409-.077c.166-.045.327-.104.483-.177.064.083.352.488-.108.59z" fill="#DCE6F2"/><path opacity=".5" d="M75.117 39.696a.813.813 0 01-.205-.024l.019-.05c.17.037.348.029.514-.023.062-.016.122-.033.186-.052.288-.097.594-.132.896-.1h.04a8.54 8.54 0 001.658-.074.618.618 0 00.354-.142l.04.04a.676.676 0 01-.385.156 8.675 8.675 0 01-1.671.074h-.04a2.721 2.721 0 00-.548.016c-.112.02-.222.048-.33.082-.061.018-.122.037-.186.052-.111.03-.227.045-.342.045z" fill="#575988"/><path opacity=".1" d="M82.725 21.987l-.325.304-.808-1.027a2.75 2.75 0 00.248-.155l.885.878z" fill="#000"/><path d="M86.384 13.561l.635.878v.923s.291.975 0 1.949l.033.85s-.309.783-.198.975c0 0-.056.576-.801.975-.746.398-1.59 1.337-1.59 1.337s-.317.605-1.173.467l-.815.343-.939-1.193 1.27-.687s.442-.59.705-.562l1.077-1.247s.028-.397.304-.397c0 0-.51-.412-.332-.659.18-.247.028-1.345.028-1.345l1.796-2.607z" fill="#67647E"/><path opacity=".1" d="M85.197 17.568s1.45-.027 1.63.343c.179.37-1.188-.549-1.63-.343zM82.36 22.262a.484.484 0 01-.463.484h-.026a.49.49 0 01-.487-.484c0-.054.01-.108.027-.158-.23-.185-.242-.515-.237-.68.12-.02.237-.061.344-.121.06.172.14.335.24.488a.47.47 0 01.3.023.489.489 0 01.302.448z" fill="#000"/><path d="M81.561 21.196s-.326.073-.326.132c0 .059-.074.595.285.814.358.22.323-.306.323-.306s-.31-.471-.282-.64z" fill="#575988"/><path d="M81.927 22.747c.27 0 .489-.217.489-.485a.487.487 0 00-.489-.486.487.487 0 00-.488.486c0 .268.219.485.488.485z" fill="#E4AAB4"/><path d="M81.927 22.677a.417.417 0 00.42-.416.417.417 0 00-.42-.416.417.417 0 00-.418.416c0 .23.187.416.418.416z" fill="#DCE6F2"/><path opacity=".1" d="M80.026 22.449s1.032.85 2.358.312v.411s-.885.604-1.686.238c-.801-.365-.672-.961-.672-.961z" fill="#000"/><path opacity=".1" d="M80.026 22.34s1.034.85 2.358.308v.412s-.885.603-1.686.238c-.801-.365-.672-.959-.672-.959z" fill="#000"/><path d="M80.026 22.34s1.034.85 2.358.308v.412s-.885.603-1.686.238c-.801-.365-.672-.959-.672-.959z" fill="#444053"/><path opacity=".05" d="M80.053 22.34s1.032.85 2.358.311v.412s-.887.6-1.686.238c-.798-.363-.672-.962-.672-.962z" fill="#000"/><path opacity=".1" d="M76.788 37.622s1.382.252 1.585.306c.202.054-.056.151-.056.151s-1.266-.224-1.528-.457zM76.752 36.895c.023 0 .94-.256 1.137-.696l-1.137.696zM78.089 31.643s.371.485.61.471c.24-.014-.392-.49-.61-.471zM78.295 32.448s.156.343.386.234l-.386-.234z" fill="#000"/><path opacity=".05" d="M79.165 24.915l.98 2.566s.138-1.651-.155-2.146a.86.86 0 00-.825-.42z" fill="#000"/><g opacity=".1" fill="#000"><path opacity=".1" d="M81.576 4.58l-.009-.038-.158-.041.018.077c.05.003.099.004.148.001zM81.144 5.196l.016-.015a.327.327 0 00.093-.333.453.453 0 00-.078-.125 1.215 1.215 0 01-.227-.066c-.01.137.146.226.195.355a.276.276 0 010 .184zM83.753 9.415a.908.908 0 01-.372-.455c-.079-.185-.126-.379-.206-.56a1.72 1.72 0 00-.371-.534.236.236 0 00-.098-.068.265.265 0 00-.201.056.932.932 0 01-.307.133.334.334 0 01-.307-.092c-.086-.101-.074-.25-.049-.38.054-.285.144-.565.144-.853.001-.289-.11-.6-.363-.738-.223-.127-.5-.093-.743-.162a.945.945 0 01-.347-.177l-.02-.017a.593.593 0 00-.06.028c-.04.021-.082.06-.071.103a.11.11 0 00.04.051c.103.082.221.142.348.177.248.067.525.035.748.162.252.142.362.454.362.738s-.092.568-.143.851c-.025.13-.037.277.048.381a.327.327 0 00.307.093.931.931 0 00.307-.133.27.27 0 01.201-.057.245.245 0 01.093.068c.157.153.282.334.371.534.08.184.128.377.207.56.068.19.199.353.371.461.176.092.419.092.557-.058a.435.435 0 00.083-.137.476.476 0 01-.53.025zM84.546 8.718c.138-.173.319-.32.449-.503a1.31 1.31 0 00.072-.113c-.168.211-.397.382-.521.616z"/></g><g opacity=".1" fill="#000"><path opacity=".1" d="M76.351 6.126h-21.97c-.304 0-.596.121-.811.335a1.14 1.14 0 00-.338.805v13.79c.001.303.123.592.338.806.215.214.507.334.811.335h17.235s.446 2.355-1.022 2.608c0 0 3.285.234 2.712-2.608h3.044c.305 0 .596-.121.811-.335.215-.214.337-.503.337-.805V7.267a1.14 1.14 0 00-.336-.806 1.154 1.154 0 00-.81-.335z"/><g opacity=".2"><path opacity=".2" d="M73.738 9.787H56.993a.525.525 0 00-.526.523v.031c0 .289.236.523.526.523h16.745c.29 0 .526-.234.526-.523v-.031a.525.525 0 00-.526-.523zM70.626 14.602H56.993a.525.525 0 00-.526.523v.031c0 .29.236.524.526.524h13.633c.29 0 .527-.235.527-.524v-.03a.525.525 0 00-.527-.524zM66.513 12.194h-9.52a.525.525 0 00-.526.524v.03c0 .29.236.524.526.524h9.52c.29 0 .526-.234.526-.523v-.031a.525.525 0 00-.526-.524z"/></g></g><path d="M76.638 5.935h-21.97a1.157 1.157 0 00-.811.335 1.141 1.141 0 00-.337.806v13.79c0 .303.122.592.337.806.215.213.507.334.811.334h17.235s.446 2.356-1.022 2.608c0 0 3.286.235 2.712-2.608h3.045c.304 0 .595-.12.81-.334a1.14 1.14 0 00.337-.806V7.076a1.14 1.14 0 00-.336-.805 1.155 1.155 0 00-.81-.336z" fill="#fff"/><g opacity=".2" fill="#FFDA63"><path opacity=".2" d="M74.024 9.596H57.28a.525.525 0 00-.527.523v.031c0 .29.236.524.527.524h16.744c.29 0 .526-.235.526-.524v-.03a.525.525 0 00-.526-.524zM70.912 14.412H57.28a.525.525 0 00-.527.523v.032c0 .289.236.523.527.523h13.632c.291 0 .527-.234.527-.523v-.032a.525.525 0 00-.527-.523zM66.799 12.005h-9.52a.525.525 0 00-.526.523v.031c0 .289.236.523.527.523h9.519c.29 0 .526-.234.526-.523v-.031a.525.525 0 00-.526-.524z"/></g><path d="M7.533 51.012s.331.43-.153 1.08c-.484.65-.883 1.199-.721 1.602 0 0 .73-1.206 1.324-1.222.594-.017.204-.735-.45-1.46z" fill="#FFDA63"/><path opacity=".1" d="M7.534 51.012a.542.542 0 01.067.135c.58.677.888 1.308.331 1.325-.519.014-1.141.936-1.29 1.17 0 .017.01.034.017.052 0 0 .73-1.206 1.324-1.222.594-.017.204-.735-.45-1.46z" fill="#000"/><path d="M8.148 51.56c0 .152-.016.277-.038.277-.021 0-.038-.123-.038-.277 0-.154.022-.08.043-.08.021 0 .033-.07.033.08z" fill="#FFD037"/><path d="M8.36 51.742c-.133.072-.25.116-.26.097-.01-.018.092-.092.223-.164.131-.072.082-.02.093 0 .011.02.078-.005-.056.067z" fill="#FFD037"/><path d="M5.784 51.012s-.33.43.153 1.08c.484.65.883 1.199.722 1.602 0 0-.73-1.206-1.324-1.222-.595-.017-.205-.735.45-1.46z" fill="#FFDA63"/><path opacity=".1" d="M5.784 51.012a.541.541 0 00-.067.135c-.58.677-.888 1.308-.331 1.325.519.014 1.141.936 1.29 1.17-.004.017-.01.034-.017.052 0 0-.73-1.206-1.324-1.222-.595-.017-.205-.735.45-1.46z" fill="#000"/><path d="M5.17 51.56c0 .152.016.277.037.277.022 0 .038-.123.038-.277 0-.154-.02-.08-.042-.08-.022 0-.034-.07-.034.08z" fill="#FFD037"/><path d="M4.957 51.742c.134.072.251.116.261.097.01-.018-.093-.092-.223-.164-.131-.072-.082-.02-.093 0-.011.02-.08-.005.055.067z" fill="#FFD037"/><path opacity=".1" d="M6.66 56.985c1.911 0 3.461-.236 3.461-.528 0-.291-1.55-.527-3.461-.527-1.912 0-3.462.236-3.462.527 0 .292 1.55.528 3.462.528z" fill="#FFDA63"/><path d="M8.445 53.115l-.017.134-.023.19-.01.08-.023.188-.01.08-.023.19-.266 2.158c-.023.192-.34.343-.722.343h-1.38c-.382 0-.698-.15-.722-.343l-.266-2.157-.023-.19-.01-.08-.023-.189-.01-.08-.023-.19-.017-.133c-.013-.109.16-.201.372-.201h2.814c.22 0 .391.091.382.2z" fill="#65617D"/><path d="M8.423 53.249l-.023.19H4.917l-.024-.19h3.53zM8.391 53.518l-.023.19H4.951l-.024-.19H8.39zM8.357 53.787l-.023.19H4.983l-.024-.19h3.398z" fill="#9D9CB5"/><path opacity=".1" d="M59.967 74.089c4.31 0 7.804-.57 7.804-1.272 0-.703-3.494-1.273-7.804-1.273-4.31 0-7.803.57-7.803 1.273 0 .702 3.493 1.272 7.803 1.272z" fill="#FFDA63"/><g opacity=".1" fill="#000"><path opacity=".1" d="M69.006 33.75H45.198c-.33.002-.645.132-.878.364a1.236 1.236 0 00-.366.873v14.944c.001.328.133.642.366.873.233.232.549.362.878.363h18.677s.484 2.552-1.106 2.826c0 0 3.56.254 2.937-2.826h3.3c.33 0 .646-.131.88-.363.232-.231.364-.545.365-.873V34.987a1.236 1.236 0 00-.366-.873 1.252 1.252 0 00-.879-.363z"/><g opacity=".2"><path opacity=".2" d="M66.22 42.937H47.985a.525.525 0 00-.527.523v.122c0 .289.236.523.526.523H66.22c.291 0 .527-.234.527-.523v-.122a.525.525 0 00-.527-.523zM55.295 40.327h-7.31a.525.525 0 00-.526.523v.122c0 .289.236.523.526.523h7.31c.291 0 .527-.234.527-.523v-.122a.525.525 0 00-.527-.523z"/></g></g><path d="M68.803 33.545H44.99c-.33.001-.646.132-.879.363a1.236 1.236 0 00-.365.873v14.945c0 .327.132.641.365.873.233.231.55.362.88.363h18.676s.484 2.551-1.106 2.826c0 0 3.56.254 2.938-2.826h3.304c.33-.001.645-.132.879-.363.233-.232.364-.546.365-.873V34.78a1.236 1.236 0 00-.365-.873 1.252 1.252 0 00-.88-.363z" fill="#fff"/><g opacity=".2" fill="#FFDA63"><path opacity=".2" d="M66.011 42.731H47.777a.525.525 0 00-.526.523v.122c0 .289.236.523.526.523h18.234c.29 0 .527-.234.527-.523v-.122a.525.525 0 00-.527-.523zM55.087 40.121h-7.31a.525.525 0 00-.526.523v.122c0 .29.236.523.526.523h7.31c.291 0 .527-.234.527-.523v-.121a.525.525 0 00-.527-.524z"/></g><path d="M64.457 71.951c-.112-.473-.186-.89-.186-.89s.026-.515-.207-.902V69.077c.066-.173.148-.34.243-.5.172-.3 0-1.397 0-1.397s-.641-1.548-.485-2.53c.156-.98-1.316-4.36-1.316-4.36.01-.326.056-.65.139-.965a.741.741 0 00.018-.227v.008c-.022-.645-.538-1.861-.538-1.861l.07-2.313s.329-1.364-.208-3.195a17.524 17.524 0 01-.383-1.544l-.025-.13c1.105-.167 1.95-.306 1.95-.306s-.638-2.663-1.071-3.124c-.433-.462-.778-1.938-.778-1.938s-.226-1.88.138-2.43c.364-.548.415-1.497.415-1.497s.836-.6.935-.865c.1-.266.279-.865.279-1.182 0-.316-.104-.6-.07-.765.034-.166-.242-.8-.104-1.099a.803.803 0 00.056-.289v-.008c0-.262-.024-.523-.074-.78-.24-.202-.52-.35-.821-.437l-.019-.072-.046-.184a1.15 1.15 0 00-.082-.05v-.067l-.008-.27.13-.608c.256-1.057-1.164-1.215-1.164-1.215a.741.741 0 00-.402-.35c-.286-.099-.047 1.59.086 1.698.1.081.41.61.558.871l.024.043a.517.517 0 00-.065.068l.054.369.008.056c-.094.116-.17.246-.227.384 0 0 .26.283.208.6-.052.316.08.71.086.73-.015-.017-.198-.213-.38-.165-.182.048-.693.2-.693.2s-.38.066-.345.15c.035.083-.26.449-.26.449l-1.022-.963-.03-.088a2.395 2.395 0 01-.092-.422c.111-.026.22-.06.327-.103a.707.707 0 00.278-.18c.103-.121.123-.287.165-.438.081-.296.255-.56.38-.841.21-.474.281-.998.204-1.51a.995.995 0 00-.157-.442c-.167-.229-.47-.321-.691-.504-.221-.183-.362-.461-.618-.597-.233-.123-.516-.109-.778-.066a4.206 4.206 0 00-1.45.524c-.149.087-.312.189-.484.158-.147-.026-.255-.144-.35-.255 0-.005 0-.01.005-.014l-.012-.013a1.776 1.776 0 00-.15.754c0 .04-.001.081.004.122V33.179a.182.182 0 01-.008.054.397.397 0 01-.093.138.73.73 0 00-.083.112.361.361 0 01.014-.041.601.601 0 00-.106.321.316.316 0 00.076.229c.051.05.107.094.167.134-.071.39-.02.792.146 1.152.166.36.44.661.783.862l.035.088c.131.342.23.738.186 1.107 0 .028-.008.054-.013.081-.006.027-.025.028-.036.043 0 0-1.69.016-2.088-.342-.398-.358-1.004.874-1.004.874s-.605.116-.726 0c-.12-.116-.83-.017-.83-.017a1.534 1.534 0 00-1.052-.382 3.13 3.13 0 00-.774-.428l-.02-.006a.877.877 0 00-.38-.048s-.83-.683-1.073-1.048-1.393-1.724-1.401-1.73v-.066l-.014-.198a.672.672 0 01-.103.009l-.023-.069a3.825 3.825 0 00-.245-.56s0-.249.073-.311c.074-.063-.03-.978-.03-.978s-.749-1.74-1.42-.441c0 0-1.267.84-.203 1.818 0 0 .425.204.484.37.04.104.186.398.279.592l.044.088-.013.01.016.163.007.063c-.2.113-.336.225-.304.31.06.144.1.295.122.45 0 0 1.465 1.826 1.655 2.61 0 0 3.946 2.33 5.244 2.495l-.225 1.165c-.033.315-.05.632-.052.949.017.25-.156 1.383-.156 1.383s-.224 1.66-.415 1.897c-.19.236-.151 1.23-.151 1.23a8.364 8.364 0 01-.26 1.414c-.186.633-.052 1.415-.052 1.415s-.657 1.497.917.482c0 0 .774-.048 1.665-.078v.092c0 .114 0 .237-.006.37-.012.857-.017 2.039.022 2.934.07 1.58.557 4.709.557 4.709v1.568a2.916 2.916 0 00.38 2.023l.123 1.048s.284.691.29 1.107a.63.63 0 01-.013.1.714.714 0 00-.014.161c-.015.476.273 1.614.273 1.614s.017 1.149.186 1.216c.148.057-.198.662-.3.835 0-.01 0-.022-.007-.033l-.022.035a.801.801 0 00-.053.29.416.416 0 00.192.404c.328.199.505.369.225.432a3.01 3.01 0 00-.304.064l-.015-.039a.185.185 0 00-.113.201c.002.137.037.27.103.39.278.616.464.848.464.848l.134-.014a.712.712 0 01-.077.142.55.55 0 01-.196.172.594.594 0 01-.237.08.672.672 0 00-.49.238c-.173.222-.279.523.06.79l1.238.424s2.128.276 2.016-.2c-.113-.478-.186-.89-.186-.89.009-.29-.05-.579-.173-.842a1.119 1.119 0 00-.075-.124l.075-.008s.156-1.049.363-1.248c.049-.046.06-.081.048-.109.021-.057-.033-.092-.102-.11l-.015.042a1.022 1.022 0 00-.207-.023s-.069-.55.156-.749a.21.21 0 00.043-.163.918.918 0 00-.023-.224l-.008.013c-.114-.498-.497-1.291-.497-1.291s-.018-.5.122-.7c.139-.2-.018-2.712-.018-2.712s.052-1.215-.104-1.78c-.156-.566.19-1.232.19-1.232v-.037l.005-.008-.02-.19v.01a24 24 0 00-.15-1.173c-.07-.383.017-2.214.017-2.214l.312-.782.557 1.348.589 1.797s.291.38.298.764a.378.378 0 010 .056 1.06 1.06 0 00-.007.121c-.01.227.053.45.18.64 0 0 .156.848.398 1.065.242.217.242.632.242.632s.294 1.231.433 1.448c.116.185.123.684.122.837v.045s.04.44.039.81V65.686c-.001.1-.013.201-.037.3 0 0 0 .01-.005.017l.005-.063a3.152 3.152 0 00-.093.768c-.008.443.06.967.33 1.274.464.533.762.466.762.466s-.225.666-.503.799a.16.16 0 00-.029.019c0-.013-.005-.026-.007-.039a.322.322 0 00-.08.248c-.021.293.165.768.342.986a.54.54 0 00.234.136l-.044.027a.97.97 0 01-.093.045.451.451 0 01-.14.036.667.667 0 00-.491.237c-.173.221-.279.523.06.789l1.238.424s2.115.271 2.002-.204z" fill="url(#paint1_linear)"/><path d="M56.327 72.74l-1.198-.425c-.33-.266-.224-.567-.058-.79a.64.64 0 01.474-.237.559.559 0 00.23-.08.537.537 0 00.185-.173.866.866 0 00.137-.46s1.316-.384 1.671 0c.064.068.118.146.16.23.118.265.175.553.167.842 0 0 .068.416.176.89.107.474-1.944.202-1.944.202zM62.19 72.151l-1.198-.424c-.33-.266-.225-.567-.058-.789a.632.632 0 01.474-.237.422.422 0 00.137-.036.711.711 0 00.093-.045c.334-.184.326-.632.326-.632s1.315-.383 1.671 0c.048.052.09.109.125.17.227.387.202.904.202.904s.067.416.175.89c.11.474-1.947.2-1.947.2z" fill="#2D293D"/><path opacity=".1" d="M57.776 70.575c.064.069.118.147.16.231l-1.972.227a.866.866 0 00.137-.461s1.315-.38 1.675.003zM63.764 70.156v.369c-.306.502-1.789.392-2.22.14a.705.705 0 00.093-.045c.335-.184.326-.632.326-.632s1.315-.383 1.672 0c.05.05.093.107.129.168z" fill="#000"/><path d="M64 68.577c-.093.16-.171.327-.236.5v1.314c-.334.553-2.076.369-2.311.066-.235-.302-.486-1.08-.217-1.214.268-.132.485-.798.485-.798s-.285.066-.737-.466c-.452-.533-.318-1.714-.234-1.998.085-.283 0-1.231 0-1.231s.017-.665-.118-.882c-.134-.217-.419-1.447-.419-1.447s0-.416-.234-.633c-.234-.217-.385-1.065-.385-1.065a1.087 1.087 0 01-.17-.715c.051-.416-.284-.865-.284-.865l-.57-1.797-.536-1.348-.299.782s-.084 1.83-.017 2.214c.068.383.167 1.397.167 1.397s-.335.666-.185 1.232c.15.565.1 1.78.1 1.78s.15 2.513.017 2.712c-.134.2-.117.7-.117.7s.686 1.463.464 1.66c-.222.196-.151.749-.151.749s.464 0 .268.2c-.196.198-.343 1.25-.343 1.25l-2.025.233s-.186-.233-.454-.85c-.268-.615.05-.553.32-.614.27-.062.099-.234-.219-.433-.317-.2-.134-.646-.134-.646s.485-.815.318-.883c-.167-.067-.186-1.214-.186-1.214s-.335-1.365-.251-1.73c.083-.366-.269-1.248-.269-1.248l-.117-1.05a2.868 2.868 0 01-.371-1.979v-1.617s-.464-3.128-.536-4.71c-.043-1.014-.03-2.393-.017-3.256.009-.483.017-.803.017-.803l7.238-.751c.011.359.055.716.131 1.067.074.395.186.906.372 1.546.519 1.83.2 3.194.2 3.194l-.066 2.314s.636 1.547.502 2.08c-.08.316-.125.64-.134.965 0 0 1.424 3.378 1.273 4.36-.15.981.465 2.529.465 2.529s.171 1.1.004 1.4z" fill="#575988"/><path opacity=".05" d="M59.861 59.908l2.204-.291s-1.248 1.264-2.204.291z" fill="#000"/><path opacity=".1" d="M61.745 57.478s.076.774-.402 1.066c.001 0 .856-.134.402-1.066zM61.611 55.016s-1.841 1.505-2.507 1.384c-.666-.122 2.507-1.384 2.507-1.384zM57.13 60.615s-1.398.316-1.44.874c-.041.558 1.44-.873 1.44-.873z" fill="#000"/><path opacity=".05" d="M57.438 67.555s-1.976.369-1.415.615c.561.246 1.486.45 1.486.45s.633.032-.07-1.065z" fill="#000"/><g opacity=".05" fill="#000"><path opacity=".05" d="M55.624 68.567a.392.392 0 01-.18-.285l-.02.035s-.186.449.133.645c.037.023.072.046.103.069.06-.012.123-.02.186-.035.267-.064.096-.23-.222-.43zM58.17 68.433c.055-.05.053-.178.02-.343a.924.924 0 00-.113.483c.021-.053.053-.1.093-.14zM57.865 60.154a2.224 2.224 0 00-.133.612c.038-.145.089-.286.153-.42l-.02-.192zM62.395 59.281a.759.759 0 00.019-.184 4.24 4.24 0 00-.055.34.893.893 0 01.036-.156zM57.818 66.07c.039-.119.056-.244.05-.369-.06.149-.092.307-.093.467a.448.448 0 01.043-.098zM58.234 69.207a6.52 6.52 0 00-.23 1.023l-2.026.233s-.186-.233-.454-.849a2.021 2.021 0 01-.057-.146c-.121.055-.169.184-.01.546.269.615.453.849.453.849l2.028-.234s.15-1.048.351-1.248c.098-.098.035-.148-.055-.174zM55.557 66.22s.017 1.148.186 1.215c.084-.19.14-.37.066-.4-.169-.067-.186-1.216-.186-1.216s-.334-1.364-.25-1.73c.083-.366-.27-1.248-.27-1.248l-.116-1.048a2.865 2.865 0 01-.372-1.98v-1.615s-.464-3.128-.535-4.705c-.043-1.015-.031-2.398-.017-3.256 0-.156.004-.294.007-.41l-.057.005s-.01.32-.017.804c-.015.862-.027 2.244.017 3.256.067 1.58.535 4.709.535 4.709v1.614c-.12.683.012 1.387.372 1.98l.118 1.042s.352.882.268 1.248c-.083.367.25 1.735.25 1.735zM61.52 70.014a1.93 1.93 0 01-.32-.79c-.207.184.03.905.254 1.19.234.299 1.976.482 2.31-.067v-.317c-.452.446-2.019.267-2.244-.016zM64.066 68.134a3.23 3.23 0 00-.235.5v.23c.038-.085.093-.199.168-.333a.988.988 0 00.073-.412.061.061 0 00-.006.015zM61.623 68.396c.064-.128.12-.26.166-.396 0 0-.285.067-.738-.46-.33-.388-.348-1.12-.3-1.598-.085.283-.219 1.464.233 1.997.297.344.52.435.64.457zM60.75 64.706c.029.328.04.657.033.986.008-.052.02-.104.034-.155.085-.282 0-1.23 0-1.23s.017-.667-.117-.883c-.134-.215-.419-1.448-.419-1.448s0-.416-.234-.632c-.234-.216-.385-1.065-.385-1.065a1.084 1.084 0 01-.168-.715c.05-.416-.284-.865-.284-.865l-.57-1.798-.536-1.348-.302.782s0 .099-.01.253l.245-.636.536 1.348.572 1.798s.335.45.285.865c-.029.25.03.503.168.715 0 0 .15.849.384 1.066.234.217.235.632.235.632s.285 1.231.42 1.448c.133.217.112.882.112.882z"/></g><path d="M62.157 34.087l-.126.607.007.27.006.2-.7.071-.078-.144c-.145-.26-.444-.79-.542-.87-.129-.109-.36-1.798-.082-1.698a.73.73 0 01.389.35s1.373.161 1.126 1.214z" fill="#FFCDD3"/><path opacity=".1" d="M62.044 35.168l-.7.071-.078-.144a.618.618 0 01.772-.126l.006.199z" fill="#000"/><path d="M62.22 35.496l-.922.212-.019-.136-.053-.369s.365-.483.892-.12l.046.184.056.23z" fill="#DCE6F2"/><path d="M47.29 34.157l-.984.524-.093-.184c-.092-.195-.233-.489-.27-.594-.06-.161-.47-.369-.47-.369-1.03-.977.197-1.818.197-1.818.65-1.298 1.374.441 1.374.441s.1.916.03.978c-.071.062-.072.312-.072.312.094.18.173.367.237.56.035.093.05.15.05.15z" fill="#FFCDD3"/><path opacity=".1" d="M47.29 34.157l-.984.524-.093-.185c.139-.114.632-.51.793-.493.078.01.156.011.233.006.035.09.05.148.05.148z" fill="#000"/><path d="M47.39 34.456l-1.105.541-.022-.236-.016-.163s.641-.545.83-.525c.096.014.194.014.29 0l.011.197.012.186z" fill="#DCE6F2"/><path d="M59.477 38.126s-4.821.54-3.92.25c.627-.203.876-.599.93-1.039.04-.369-.054-.766-.181-1.107a4.753 4.753 0 00-.43-.865s3.685-2.014 2.947-.185a2.92 2.92 0 00-.209.867 2.41 2.41 0 00.093.878c.14.463.406.88.77 1.2z" fill="#FFCDD3"/><path opacity=".1" d="M58.822 35.181c-.113.277-.184.57-.209.867-.347.29-.727.27-1.216.27-.371 0-.791.093-1.092-.092a4.75 4.75 0 00-.43-.865s3.685-2.012 2.947-.18z" fill="#000"/><path d="M57.332 36.446a1.987 1.987 0 001.994-1.98c0-1.095-.893-1.981-1.994-1.981a1.987 1.987 0 00-1.993 1.98c0 1.094.892 1.98 1.993 1.98z" fill="#FFCDD3"/><path opacity=".1" d="M59.477 38.125s-4.821.54-3.92.25c.627-.203.876-.598.93-1.038.239-.259.72-.445 1.03-.544.284-.094.589-.099.875-.014.112.034.219.083.317.146.14.463.405.879.768 1.2zM62.22 35.496l-.923.212-.018-.136a.814.814 0 01.884-.301l.056.225zM47.39 34.456l-1.105.542-.023-.236a8.152 8.152 0 011.115-.491l.013.185zM61.384 50.192c-1.867.294-4.524.675-4.946.547-.349-.106-1.466-.092-2.438-.062.008-.483.017-.803.017-.803l7.236-.751a5.9 5.9 0 00.131 1.07z" fill="#000"/><path d="M63.245 49.757s-6.147 1.05-6.807.849c-.66-.2-4.047.017-4.047.017-1.524 1.014-.888-.483-.888-.483s-.134-.782.05-1.414c.125-.464.21-.937.257-1.414 0 0-.034-1 .15-1.232.184-.232.402-1.897.402-1.897s.168-1.131.151-1.384c.001-.317.018-.633.05-.948l.218-1.166c-1.256-.166-5.076-2.496-5.076-2.496-.185-.781-1.607-2.612-1.607-2.612a1.894 1.894 0 00-.118-.45c-.1-.265 1.408-.797 1.408-.797s1.121 1.364 1.356 1.73c.235.366 1.038 1.048 1.038 1.048a.823.823 0 01.372.048l.02.006c.269.105.522.25.75.428a1.46 1.46 0 011.021.382s.687-.1.804.017c.117.116.704 0 .704 0s.586-1.231.971-.874c.386.358 2.02.342 2.02.342.218-.288.749-.495 1.08-.6.283-.095.588-.1.874-.015.123.035.24.091.344.166l.992.964s.285-.369.252-.449c-.034-.08.335-.15.335-.15s.486-.15.67-.2c.183-.05.352.15.37.167-.005-.022-.131-.425-.082-.732.05-.307-.201-.6-.201-.6.587-1.43 1.91-.232 1.91-.232s.15.782.017 1.081c-.134.299.133.933.1 1.099-.034.166.067.45.067.765 0 .317-.167.916-.269 1.181-.1.266-.904.866-.904.866s-.05.949-.402 1.498c-.352.549-.144 2.43-.144 2.43s.335 1.467.757 1.937c.421.47 1.035 3.124 1.035 3.124z" fill="#656691"/><path opacity=".1" d="M54.285 38.808s-.186-.549-.352-.599a4.017 4.017 0 01-.486-.217l.108-.204s.628.171.73.354c.1.183 0 .666 0 .666zM50.917 37.592c-.033.166-1.525.317-1.525.317l.754-.751.019.006c.27.106.523.25.752.428z" fill="#000"/><path d="M46.603 35.442c.074 0 .134-.06.134-.133a.133.133 0 00-.134-.133.133.133 0 00-.134.133c0 .073.06.133.134.133zM46.775 35.709a.133.133 0 100-.266.133.133 0 00-.134.133c0 .073.06.133.134.133zM46.943 35.954c.074 0 .134-.06.134-.133a.133.133 0 00-.134-.133.133.133 0 00-.134.133c0 .073.06.133.134.133zM47.119 36.22c.073 0 .133-.06.133-.133a.133.133 0 00-.133-.133.133.133 0 00-.134.133c0 .074.06.133.134.133zM62.908 36.18c.06 0 .109-.047.109-.107a.108.108 0 00-.109-.108.108.108 0 00-.109.108c0 .06.049.108.109.108zM62.925 36.426c.06 0 .108-.048.108-.108a.108.108 0 00-.108-.108.108.108 0 00-.11.108c0 .06.05.108.11.108zM62.94 36.672a.108.108 0 100-.216.108.108 0 00-.109.108c0 .06.049.108.109.108z" fill="#575988"/><path opacity=".1" d="M54.292 43.317c-.015-.02 3.76 4.718 6.692 1.98 0 0-4.632.624-6.692-1.98zM52.123 45.78s2.26.061 2.495.707v.672a.435.435 0 01-.42 0c-.227-.122-1.594-.812-2.075-.48v-.899z" fill="#000"/><path d="M52.165 45.78s2.161.058 2.387.675v.639a.417.417 0 01-.402 0c-.218-.117-1.524-.774-1.985-.462v-.852z" fill="#656691"/><path opacity=".1" d="M53.356 40.906c.231.53.525 1.032.876 1.493.382.51.846.955 1.372 1.317 0 0-2.21-2.501-2.248-2.81zM52.618 38.298s.377 1.616 1.348 2.166l-1.348-2.166zM52.038 38.461c-.009-.03-.334 1.279 1.253 2.003.004 0-.674-.228-1.253-2.003zM61.905 37.377c-.025 0 .784.511 1.003.748 0 0-.526-.78-1.003-.748z" fill="#000"/><path d="M56.794 36.26a.422.422 0 00.156.268.434.434 0 00.185.041c.608.037 1.24.064 1.803-.169a.682.682 0 00.278-.18c.1-.121.12-.286.16-.438.078-.296.246-.56.371-.841.204-.476.272-.998.197-1.51a.997.997 0 00-.151-.442c-.162-.229-.455-.321-.669-.503-.213-.181-.35-.461-.599-.597-.224-.124-.498-.11-.752-.067-.5.083-.98.261-1.413.524-.144.088-.303.19-.464.159-.146-.028-.252-.15-.346-.263-.118.271-.17.567-.148.862a.384.384 0 010 .13.4.4 0 01-.093.138c-.15.172-.244.446-.093.62.064.077.163.119.226.196.113.14.075.339.072.518a.263.263 0 00.044.175.257.257 0 00.247.058.688.688 0 01.261-.025c.094.03.174.092.228.175.273.354.382.744.5 1.171z" fill="#2D293D"/><g opacity=".1" fill="#000"><path opacity=".1" d="M59.28 36.067a.674.674 0 01-.28.185c-.556.232-1.193.205-1.801.168a.407.407 0 01-.186-.042.418.418 0 01-.156-.267c-.118-.427-.227-.817-.508-1.171a.431.431 0 00-.228-.174.67.67 0 00-.262.025.262.262 0 01-.243-.059.265.265 0 01-.044-.176c0-.178.04-.378-.072-.516-.063-.079-.161-.12-.226-.196a.39.39 0 01-.04-.398c-.105.168-.152.384-.027.53.064.077.163.119.226.196.113.14.075.339.072.518a.263.263 0 00.044.175.258.258 0 00.246.058.69.69 0 01.262-.025.43.43 0 01.228.175c.278.354.39.744.508 1.171a.311.311 0 00.215.295.318.318 0 00.128.014c.608.037 1.24.064 1.803-.168a.684.684 0 00.278-.18.528.528 0 00.087-.16.291.291 0 01-.025.022zM55.4 33.182a.277.277 0 00.062-.1.384.384 0 000-.13 1.823 1.823 0 01.092-.717l-.01-.013c-.12.272-.17.568-.15.863a.55.55 0 01.006.097z"/></g><path opacity=".1" d="M56.438 37.46s2.49.328 2.714-.044l-2.714.044zM61.281 36.436s1.383 0 1.688.518l-1.688-.518z" fill="#000"/><path d="M91.064 35.194s.173.224-.08.564c-.252.34-.464.626-.376.837 0 0 .381-.63.691-.639.31-.01.107-.387-.235-.762z" fill="#FFDA63"/><path opacity=".1" d="M91.064 35.194a.305.305 0 01.036.07c.302.354.464.684.172.692-.27.008-.596.49-.674.612 0 .009.006.018.01.027.003.01.381-.63.691-.639.31-.01.107-.387-.235-.762z" fill="#000"/><path d="M91.386 35.475c0 .08-.008.144-.02.144-.01 0-.02-.065-.02-.144 0-.08.012-.041.023-.041.01 0 .017-.037.017.041z" fill="#FFD037"/><path d="M91.496 35.57c-.07.038-.131.06-.136.05-.004-.01.047-.047.117-.085.071-.038.042-.01.048 0 .005.01.041-.003-.029.035z" fill="#FFD037"/><path d="M90.15 35.194s-.173.224.08.564c.254.34.464.626.377.837 0 0-.382-.63-.693-.639-.31-.01-.105-.387.236-.762z" fill="#FFDA63"/><path opacity=".1" d="M90.15 35.194a.283.283 0 00-.036.07c-.303.354-.464.684-.173.692.272.008.597.49.675.612 0 .009-.005.018-.009.027-.004.01-.382-.63-.693-.639-.31-.01-.105-.387.236-.762z" fill="#000"/><path d="M89.828 35.475c0 .08.01.144.02.144a.29.29 0 00.02-.144c0-.078-.01-.041-.022-.041-.011 0-.018-.037-.018.041z" fill="#FFD037"/><path d="M89.718 35.57c.07.038.131.06.136.05.006-.01-.047-.047-.116-.085-.07-.038-.043-.01-.049 0-.005.01-.04-.003.03.035z" fill="#FFD037"/><path d="M89.882 36.56s.484-.014.63-.117c.145-.104.742-.226.78-.061.038.165.727.823.186.83-.541.007-1.27-.084-1.415-.173-.146-.088-.181-.478-.181-.478z" fill="#A8A8A8"/><path opacity=".2" d="M91.485 37.152c-.546 0-1.27-.085-1.415-.172-.111-.068-.155-.309-.17-.42h-.018s.03.389.176.477c.146.087.868.177 1.415.172.158 0 .212-.057.21-.14-.021.05-.08.082-.198.083z" fill="#000"/></g><defs><linearGradient id="paint0_linear" x1="77.785" y1="40.721" x2="77.785" y2="4.096" gradientUnits="userSpaceOnUse"><stop stop-color="gray" stop-opacity=".25"/><stop offset=".54" stop-color="gray" stop-opacity=".12"/><stop offset="1" stop-color="gray" stop-opacity=".1"/></linearGradient><linearGradient id="paint1_linear" x1="12835.7" y1="34667.6" x2="12835.7" y2="15922.3" gradientUnits="userSpaceOnUse"><stop stop-color="gray" stop-opacity=".25"/><stop offset=".54" stop-color="gray" stop-opacity=".12"/><stop offset="1" stop-color="gray" stop-opacity=".1"/></linearGradient><clipPath id="clip0"><path fill="#fff" d="M0 0h100.089v75H0z"/></clipPath></defs></svg>