<svg width="430" height="250" fill="none" xmlns="http://www.w3.org/2000/svg"><path d="M282.303 48.35h-94.614c-5.277 0-9.555 3.73-9.555 8.333V78.05c0 4.603 4.278 8.334 9.555 8.334h94.614c5.277 0 9.555-3.731 9.555-8.334V56.683c0-4.602-4.278-8.333-9.555-8.333z" fill="#fff" stroke="#E1E4E5" stroke-width="4"/><path d="M277.681 60.188h-58.823c-1.428 0-2.586 1.01-2.586 2.255 0 1.245 1.158 2.255 2.586 2.255h58.823c1.428 0 2.585-1.01 2.585-2.255 0-1.245-1.157-2.255-2.585-2.255zM255.056 69.771h-36.198c-1.428 0-2.586 1.01-2.586 2.255 0 1.246 1.158 2.255 2.586 2.255h36.198c1.429 0 2.586-1.01 2.586-2.255 0-1.245-1.157-2.255-2.586-2.255z" fill="#E1E4E5"/><path fill-rule="evenodd" clip-rule="evenodd" d="M196.157 76.955c-6.028 0-10.915-4.323-10.915-9.654 0-5.331 4.887-9.654 10.915-9.654s10.916 4.323 10.916 9.654c0 5.331-4.888 9.654-10.916 9.654z" fill="#AAA"/><path d="M200.001 65.692l-4.611 4.29-2.769-2.573" stroke="#fff" stroke-width="3.568" stroke-linecap="round" stroke-linejoin="round"/><path d="M295.526 105.53h-94.613c-5.278 0-9.556 3.731-9.556 8.333v21.367c0 4.603 4.278 8.334 9.556 8.334h94.613c5.277 0 9.556-3.731 9.556-8.334v-21.367c0-4.602-4.279-8.333-9.556-8.333z" fill="#fff" stroke="#E1E4E5" stroke-width="4"/><path d="M290.904 117.368h-58.823c-1.428 0-2.586 1.01-2.586 2.255 0 1.245 1.158 2.255 2.586 2.255h58.823c1.428 0 2.586-1.01 2.586-2.255 0-1.245-1.158-2.255-2.586-2.255zM268.28 126.951h-36.199c-1.428 0-2.586 1.01-2.586 2.255 0 1.246 1.158 2.255 2.586 2.255h36.199c1.428 0 2.586-1.009 2.586-2.255 0-1.245-1.158-2.255-2.586-2.255z" fill="#E1E4E5"/><path fill-rule="evenodd" clip-rule="evenodd" d="M209.38 134.135c-6.028 0-10.915-4.323-10.915-9.654 0-5.331 4.887-9.653 10.915-9.653s10.916 4.322 10.916 9.653-4.888 9.654-10.916 9.654z" fill="#00B865"/><path d="M213.224 122.872l-4.611 4.291-2.768-2.574" stroke="#fff" stroke-width="3.568" stroke-linecap="round" stroke-linejoin="round"/><path d="M282.303 162.71h-94.614c-5.277 0-9.555 3.731-9.555 8.333v21.367c0 4.603 4.278 8.334 9.555 8.334h94.614c5.277 0 9.555-3.731 9.555-8.334v-21.367c0-4.602-4.278-8.333-9.555-8.333z" fill="#fff" stroke="#E1E4E5" stroke-width="4"/><path d="M277.681 174.548h-58.823c-1.428 0-2.586 1.01-2.586 2.255 0 1.245 1.158 2.255 2.586 2.255h58.823c1.428 0 2.585-1.01 2.585-2.255 0-1.245-1.157-2.255-2.585-2.255zM255.056 184.131h-36.198c-1.428 0-2.586 1.01-2.586 2.255 0 1.246 1.158 2.255 2.586 2.255h36.198c1.429 0 2.586-1.009 2.586-2.255 0-1.245-1.157-2.255-2.586-2.255z" fill="#E1E4E5"/><path fill-rule="evenodd" clip-rule="evenodd" d="M196.157 191.315c-6.028 0-10.915-4.323-10.915-9.654 0-5.331 4.887-9.653 10.915-9.653s10.916 4.322 10.916 9.653-4.888 9.654-10.916 9.654z" fill="#AAA"/><path d="M200.001 180.052l-4.611 4.291-2.769-2.574" stroke="#fff" stroke-width="3.568" stroke-linecap="round" stroke-linejoin="round"/><path d="M122.066 84.124c-.278.97.091 1.979.699 2.826.43.598 1.032-.063 1.909-.168 1.356-.166 2.215-1.418 2.508-4.468.136-2.228.072-3.34-.07-3.534-.507-.697-1.81-.93-2.837-.862" fill="#3F3D56"/><path fill-rule="evenodd" clip-rule="evenodd" d="M124.528 216.701s-.082 4.581 3.16 6.208c3.242 1.627 8.265 4.651 8.265 4.651l-19.108.561.545-11.461 7.138.041z" fill="#F8AE9D"/><path fill-rule="evenodd" clip-rule="evenodd" d="M116.179 221.749l-.311 7.431h4.438l.304-.957s1.671-.06 2.637.354c1.02.437 1.157.649 1.157.649l14.078.026s.694-2.402-3.597-4.139c-4.291-1.738-7.416-4.204-8.009-4.456-.598-.254-1.804-.398-2.654.199-.849.597-1.521 2.168-3.445 2.217-2.478.063-3.901-2.581-4.598-1.324zm-5.487-79.808s5.215 38.591 5.377 41.274c.162 2.682-1.675 7.312-1.639 12.33.036 5.018.671 22.703.671 22.703l11.504.164s4.835-31.959 4.887-36.752c.051-4.792.495-39.257.495-39.257l-21.295-.462z" fill="#3F3D56"/><path fill-rule="evenodd" clip-rule="evenodd" d="M96.622 215.896L94.38 227.77l8.265-.037.261-12.023-6.284.186z" fill="#F8AE9D"/><path fill-rule="evenodd" clip-rule="evenodd" d="M95.448 221.085c-.311.06-.592.208-.796.422a1.16 1.16 0 00-.332.759l-.076 2.022c-1.179 1.142-1.73 4.461-1.781 4.78a.211.211 0 00-.003.052c.137 1.62 12.315 1.594 13.34.06a.243.243 0 00.028-.185c-.114-.611-.786-3.92-2.094-4.814l-.009-2.001a1.156 1.156 0 00-.297-.758 1.46 1.46 0 00-.764-.444l-1.518-.356c-1.208-1.541-2.855-1.487-4.266.192l-1.431.271zm5.232-78.78s-3.684 26.329-3.633 31.371c.05 5.042 1.133 7.257-.409 10.874-1.542 3.617-2.858 32.487-2.858 32.487l11.404.828s7.285-30.892 8.077-35.176c.793-4.283 10.583-40.748 10.583-40.748l-23.164.364z" fill="#3F3D56"/><path fill-rule="evenodd" clip-rule="evenodd" d="M157.542 94.965s-.953-4.627-.61-5.564c.292-.81 3.056-1.978 3.056-1.978s4.807-6.622 5.859-5.948c.856.547-2.503 5.43-2.503 5.43s3.063 2.802 3.02 4.055c-.043 1.253-4.999 5.175-4.999 5.175l-3.823-1.17zm-49.407 1.087s3.166-.648 3.276-5.172c.11-4.524.033-6.068.033-6.068l7.506-.11s.075 5.042.076 6.865c.003 3.97 3.385 5.043 3.385 5.043s-.282 4.342-6.6 4.652c-4.934.242-7.676-5.21-7.676-5.21z" fill="#F8AE9D"/><path fill-rule="evenodd" clip-rule="evenodd" d="M110.755 82.525c-3.112-.105-2.604 3.867.627 3.861 0 0 3.473 6.09 8.926 6.106 2.627.008 3.484-2.032 4.272-3.465.787-1.432 1.365-3.575 1.413-4.886.051-1.399.058-5.994.058-5.994l-15.418-.006.122 4.384z" fill="#F8AE9D"/><path fill-rule="evenodd" clip-rule="evenodd" d="M122.528 96.341s8.086 2.202 10.035 4.831c6.276 4.809 14.127 11.413 14.127 11.413s7.477-16.365 9.921-18.23c1.672-1.278 5.005.301 5.626 1.923.797 2.084-4.324 14.306-6.742 20.078a166.328 166.328 0 00-1.039 2.509c-1.475 3.731-5.063 5.871-9.43 3.499-1.76-.956-6.998-4.088-11.467-6.928-.07 2.983-.188 6.127-.3 9.113-.271 7.254-.508 13.575.061 14.396 2.818 4.072-.929 6.867-13.337 7.893-12.408 1.027-23.416.186-21.418-5.247.416-1.132.41-3.569.204-6.734-1.216-.057-2.43-.127-3.645-.21-5.178-.356-9.007-2.296-9.542-7.336-.374-3.529 7.336-20.097 10.227-25.544a5.022 5.022 0 012.906-2.464c.276-.268.586-.457.935-.557 2.124-.611 9.738-3.4 9.738-3.4l9.057 5.167 4.083-4.172zM97.93 125.505l-.021.046.025.003-.004-.049z" fill="#FFDA63"/><path fill-rule="evenodd" clip-rule="evenodd" d="M118.026 129.878s2.763-.485 3.894-1.258c1.13-.775 4.554-1.322 4.554-1.322l-1.096 2.012s8.392-.687 8.591.035c.199.722-2.229 1.507-2.229 1.507s-1.196 1.95-2.355 3.08c-1.096 1.069-6.543.942-8.453.274-1.65-.576-3.444-.288-3.444-.288l.538-4.04z" fill="#F8AE9D"/><path d="M111.601 78.328c.454.52 1.255.634 1.916.736.887.138 1.326.426 1.787 1.196.292.493.583 1.032 1.106 1.3.425.218.412-.335.475-.762a.806.806 0 01.027-.118c.101-.341.516-.284.637.052.111.305.347.563.648.707.049.024.101.044.153.035.071-.009.127-.067.172-.12.096-.11.191-.249.29-.396.325-.488.944-.316 1.307.15.228.29.498.59.869.657.12.023.271.005.326-.097.07-.126-.04-.253-.021-.381.015-.12.073-.173.138-.276.251-.396.834-.41 1.189-.08.247.229.505.45.773.66.114.089.279.177.393.089.061-.048.076-.127.089-.203.064-.372.126-.745.191-1.117.036-.208.162-.48.377-.428.105.026.166.123.224.211.071.112 1.333 1.381 1.357 1.284.197-.72.6-1.377.796-2.099 1.271-4.64-4.37-8.373-8.678-8.393-.958-.006-1.834.007-2.764.204-.992.211-2.039.546-2.939 1.018-1.262.66-2.217 1.859-1.971 3.29" fill="#3F3D56"/><path d="M115.104 76.828c.608.606.769 1.459.825 2.264.084 1.215-.03 2.477-.667 3.555-.182.307-.315 1.826-.595 1.742-.09-.026-.075-1.204-.31-1.839-.363-.984-2.037-1.36-2.791-.737-1.203.989-.497 2.19-.098 2.938.238.451.616.957.682 1.435.081.611.104 2.838-.348 3.358-.378.435-.781-1.669-1.123-2.083-2.534-3.088-4.965-10.95-.638-12.656.659-.26 2.69-.393 3.306-.063" fill="#3F3D56"/><path d="M156.068 58.26c-4.985.86-10.663-3.718-10.663-3.718s2.408-5.974 7.394-6.832c4.985-.862 10.661 3.714 10.661 3.714s-2.408 5.974-7.392 6.835z" fill="url(#paint0_linear)"/><path d="M333.756 195.636c5.957 3.578 15.059 1.077 15.059 1.077s-.564-8.303-6.525-11.878c-5.957-3.578-15.054-1.08-15.054-1.08s.563 8.302 6.52 11.881z" fill="url(#paint1_linear)"/><path d="M339.408 90.995c-6.194 5.498-17.778 4.34-17.778 4.34s-1.533-10.075 4.667-15.57c6.195-5.498 17.773-4.342 17.773-4.342s1.532 10.074-4.662 15.572z" fill="url(#paint2_linear)"/><path d="M152.789 199.709c-2.13 0-3.857 1.506-3.857 3.363 0 1.858 1.727 3.363 3.857 3.363 2.129 0 3.856-1.505 3.856-3.363 0-1.857-1.727-3.363-3.856-3.363zM62.111 143.139c-1.583 0-2.867-1.12-2.867-2.5 0-1.381 1.284-2.5 2.867-2.5s2.867 1.119 2.867 2.5c0 1.38-1.284 2.5-2.867 2.5zM176.764 102.66c-1.678 0-3.038-1.186-3.038-2.65 0-1.463 1.36-2.65 3.038-2.65 1.678 0 3.038 1.187 3.038 2.65 0 1.464-1.36 2.65-3.038 2.65z" fill="#FFDA63"/><path d="M280.163 220.368c-2.489 0-4.506-1.613-4.506-3.603 0-1.989 2.017-3.602 4.506-3.602 2.489 0 4.506 1.613 4.506 3.602 0 1.99-2.017 3.603-4.506 3.603zM79.55 184.389c-1.451 0-2.628-1.026-2.628-2.292 0-1.266 1.177-2.292 2.628-2.292s2.628 1.026 2.628 2.292c0 1.266-1.177 2.292-2.628 2.292zM70.423 95.93c-1.98 0-3.587-1.401-3.587-3.129 0-1.727 1.606-3.128 3.587-3.128 1.98 0 3.587 1.4 3.587 3.128 0 1.728-1.606 3.128-3.587 3.128zM244.764 26.888c-2.013 0-3.645-1.542-3.645-3.444S242.751 20 244.764 20s3.646 1.542 3.646 3.444-1.633 3.444-3.646 3.444zM167.614 138.097c.716 2.33-.869 4.724-3.54 5.348-2.671.625-5.417-.758-6.133-3.087-.715-2.33.87-4.724 3.541-5.348 2.671-.624 5.417.758 6.132 3.087zM90.43 52.853c-2.684 0-4.86-1.898-4.86-4.239s2.176-4.239 4.86-4.239c2.685 0 4.861 1.898 4.861 4.24 0 2.34-2.176 4.238-4.86 4.238zM365.631 166.496c-2.83 0-5.124-1.6-5.124-3.575 0-1.974 2.294-3.575 5.124-3.575 2.83 0 5.125 1.601 5.125 3.575 0 1.975-2.295 3.575-5.125 3.575zM339.258 137.853c1.49 4.848-1.809 9.831-7.369 11.13-5.559 1.299-11.273-1.578-12.762-6.426-1.49-4.848 1.809-9.831 7.368-11.13 5.559-1.299 11.273 1.578 12.763 6.426zM304.881 36.337h.097c.575 7.27 6.636 7.381 6.636 7.381s-6.683.117-6.683 8.516c0-8.4-6.684-8.516-6.684-8.516s6.059-.112 6.634-7.38zM180.001 20h.102c.601 7.512 6.938 7.627 6.938 7.627s-6.988.12-6.988 8.8c0-8.68-6.987-8.8-6.987-8.8s6.334-.115 6.935-7.627z" fill="#E1E4E5"/><defs><linearGradient id="paint0_linear" x1="137.185" y1="59.989" x2="177.899" y2="38.122" gradientUnits="userSpaceOnUse"><stop stop-color="#fff"/><stop offset="1" stop-color="#EEE"/></linearGradient><linearGradient id="paint1_linear" x1="356.962" y1="207.377" x2="316.736" y2="158.739" gradientUnits="userSpaceOnUse"><stop stop-color="#fff"/><stop offset="1" stop-color="#EEE"/></linearGradient><linearGradient id="paint2_linear" x1="314.693" y1="109.776" x2="351.287" y2="43.999" gradientUnits="userSpaceOnUse"><stop stop-color="#fff"/><stop offset="1" stop-color="#EEE"/></linearGradient></defs></svg>