<svg width="492" height="250" fill="none" xmlns="http://www.w3.org/2000/svg"><g clip-path="url(#clip0)"><path d="M427.088 248.361c.047-.131 4.606-13.267-3.462-24.989l-.824.492c7.81 11.346 3.403 24.082 3.358 24.209l.928.288z" fill="#E4E4E4"/><path d="M417.856 225.058c.174.768.508 1.496.984 2.143a6.227 6.227 0 001.791 1.629 6.678 6.678 0 002.323.868 6.888 6.888 0 002.504-.027 6.661 6.661 0 002.301-.917 6.2 6.2 0 001.75-1.667c.46-.657.777-1.393.931-2.164a5.584 5.584 0 00-.028-2.331c-.732-3.229-6.931-11.264-10.398-10.583-3.467.681-2.889 9.82-2.158 13.049zM419.025 240.159c3.094 3.114 8.63 3.029 8.63 3.029s.519-5.133-2.576-8.247c-3.094-3.113-8.63-3.029-8.63-3.029s-.519 5.133 2.576 8.247zM465.925 249.272c.111-.31 10.87-31.31-8.172-58.971l-1.944 1.16c18.432 26.777 8.032 56.831 7.925 57.132l2.191.679z" fill="#E4E4E4"/><path d="M444.137 194.279c.83 3.658 3.185 6.859 6.55 8.9 3.364 2.041 7.46 2.754 11.389 1.983 3.929-.772 7.367-2.965 9.56-6.097 2.192-3.132 2.959-6.947 2.132-10.605-1.726-7.62-16.355-26.583-24.537-24.976-8.183 1.607-6.819 23.175-5.094 30.795zM446.896 229.916c7.302 7.348 20.366 7.149 20.366 7.149s1.225-12.114-6.078-19.462c-7.302-7.348-20.366-7.149-20.366-7.149s-1.224 12.113 6.078 19.462z" fill="#E4E4E4"/><path d="M283.828 246.938l-7.139-2.799-4.898-33.33h-65.223l-5.309 33.193-6.388 2.974c-.305.143-.55.377-.695.665a1.32 1.32 0 00-.102.923c.078.31.267.586.535.784.267.197.599.304.941.304h87.69c.35 0 .69-.112.961-.319.271-.206.457-.494.526-.814a1.328 1.328 0 00-.146-.94 1.487 1.487 0 00-.753-.641z" fill="#E6E6E6"/><path d="M399.734 215.243H79.341c-1.681-.003-3.292-.628-4.48-1.736-1.187-1.108-1.854-2.609-1.854-4.175V167.26h333.061v42.072c0 1.566-.667 3.067-1.854 4.175-1.188 1.108-2.799 1.733-4.48 1.736z" fill="#CCC"/><path d="M406.403 187.144H72.715V7.126c.002-1.89.809-3.7 2.244-5.037C76.393.754 78.339.002 80.367 0H398.75c2.029.002 3.974.754 5.409 2.09 1.434 1.335 2.241 3.146 2.244 5.036v180.018z" fill="#3F3D56"/><path d="M386.475 13.065H92.644c-1.564.002-3.064.582-4.169 1.612-1.105 1.03-1.726 2.427-1.727 3.883v150.024c0 1.457.622 2.853 1.727 3.884 1.106 1.03 2.605 1.609 4.169 1.611h293.831c1.564-.002 3.062-.582 4.168-1.612 1.105-1.03 1.726-2.426 1.728-3.883V18.56c-.002-1.456-.623-2.852-1.728-3.882-1.106-1.03-2.604-1.61-4.168-1.613z" fill="#fff"/><path d="M144.727 13.065V174.08H92.643c-1.563-.002-3.063-.581-4.168-1.611-1.105-1.031-1.727-2.427-1.727-3.884V18.56c0-1.456.622-2.853 1.727-3.883 1.105-1.03 2.605-1.61 4.169-1.612h52.083z" fill="#F0F0F0"/><path d="M101.759 94.404a4.408 4.408 0 00-1.782-.009 4.26 4.26 0 00-1.62.695 3.914 3.914 0 00-1.151 1.266 3.63 3.63 0 00-.468 1.602l-14.02 3.849 5.804 4.562 12.423-4.354a4.307 4.307 0 002.727-1.02 3.761 3.761 0 001.31-2.449 3.654 3.654 0 00-.766-2.641 4.168 4.168 0 00-2.457-1.5z" fill="#FFB6B6"/><path d="M45.114 123.371a6.115 6.115 0 01-3.782-1.298c-1.056-.837-1.758-1.995-1.982-3.269a5.135 5.135 0 01.76-3.686c.715-1.106 1.828-1.94 3.14-2.352l28.41-8.931 22.16-7.518 2.72 8.865-19.563 12.004-30.64 6.065c-.402.079-.812.12-1.223.12z" fill="#FFDA63"/><path d="M62.892 245.488h3.989l1.898-14.327H62.89l.001 14.327z" fill="#FFB6B6"/><path d="M61.875 244.275h7.855c1.328 0 2.601.491 3.54 1.366.939.874 1.466 2.06 1.467 3.296v.151l-12.862.001v-4.814z" fill="#2F2E41"/><path d="M32.309 245.488h3.988l1.898-14.327h-5.887v14.327z" fill="#FFB6B6"/><path d="M31.291 244.275h7.856c1.328 0 2.6.491 3.54 1.366.938.874 1.466 2.06 1.466 3.296v.151l-12.862.001v-4.814zM32.27 159.55a18.678 18.678 0 00-1.14 12.552l-1.138 71.07h8.76l4.905-39.084 8.134-25.754 8.784 19.997v41.677l8.46-.472 4.555-44.235-5.206-31.51-36.115-4.241z" fill="#2F2E41"/><path d="M64.317 104.256l-7.483-2.121-1.953-3.636H45.27l-2.426 3.939s-9.76 3.333-10.086 19.391c-.325 16.058-1.627 41.811-1.627 41.811l38.487 5.109-5.3-64.493z" fill="#FFDA63"/><path d="M75.366 165.874a3.609 3.609 0 00.38-1.622 3.613 3.613 0 00-.392-1.619 3.883 3.883 0 00-1.091-1.312 4.228 4.228 0 00-1.586-.76l-1.128-13.57-5.999 4.338 1.991 12.221a3.63 3.63 0 00.505 2.696 4.102 4.102 0 002.3 1.703 4.424 4.424 0 002.933-.149c.925-.383 1.668-1.068 2.087-1.926z" fill="#FFB6B6"/><path d="M65.13 158.88l-8.541-20.316v-29.17c0-1.39.57-2.727 1.594-3.737 1.024-1.011 2.424-1.619 3.914-1.699a6.13 6.13 0 014.098 1.265c1.143.893 1.876 2.16 2.049 3.54l3.474 27.734 3.289 21.748-9.876.635z" fill="#FFDA63"/><path d="M51.92 93.783c5.304 0 9.605-4.005 9.605-8.945s-4.3-8.945-9.606-8.945c-5.305 0-9.605 4.004-9.605 8.945 0 4.94 4.3 8.945 9.605 8.945z" fill="#FFB9B9"/><path d="M52.548 82.119c-.45.537-1.065 1.022-1.164 1.697-.074.5.16.994.183 1.498.002.509-.205.999-.578 1.37a2.214 2.214 0 01-1.429.631 2.427 2.427 0 00-1.533-.816c-.3-.032-.605.027-.867.168a1.354 1.354 0 00-.59.615c-.285.751.376 1.513.482 2.303a4.465 4.465 0 01-.3 1.716c-.243.906-.308 1.865-.735 2.71-.427.846-1.377 1.573-2.36 1.386-.826-.157-1.385-.903-1.616-1.658-.231-.755-.221-1.556-.388-2.326-.544-2.502-2.856-4.356-3.764-6.764-1.162-3.086.234-6.616 2.641-8.998a7.945 7.945 0 013.664-2.21c1.5-.355 3.086-.1 4.625-.251 1.646-.163 3.193-.786 4.793-1.182 1.6-.396 3.386-.545 4.84.192 1.014.513 1.749 1.399 2.694 2.017a5.966 5.966 0 003.712.925l-1.571.64a5.165 5.165 0 002.116 1.078 3.833 3.833 0 01-2.255.737c.17.287.403.538.682.738.279.2.6.344.94.424-1.192.522-2.458 1.056-3.77.938-.642-.057-1.257-.27-1.891-.38-1.353-.233-2.742.01-4.093.25-.71.127-1.58.249-1.938.884-.299.53-.07 1.119-.53 1.668z" fill="#2F2E41"/><path d="M115.738 107.842c8.463 0 15.324-6.389 15.324-14.27 0-7.881-6.861-14.27-15.324-14.27-8.464 0-15.325 6.389-15.325 14.27 0 7.881 6.861 14.27 15.325 14.27z" fill="#FFDA63"/><path d="M124.932 93.573h-8.275v-7.706h-1.839v7.706h-8.275v1.712h8.275v7.706h1.839v-7.706h8.275v-1.712zM246.232 31.898c-.473 0-.926.175-1.26.486a1.604 1.604 0 00-.522 1.174V61.35c0 .44.188.862.522 1.173.334.311.787.486 1.26.487h120.315c.472 0 .925-.176 1.26-.487.334-.311.522-.733.522-1.173V33.558c0-.44-.188-.862-.522-1.174a1.856 1.856 0 00-1.26-.486H246.232z" fill="#fff"/><path d="M246.232 31.898c-.473 0-.926.175-1.26.486a1.604 1.604 0 00-.522 1.174V61.35c0 .44.188.862.522 1.173.334.311.787.486 1.26.487h120.315c.472 0 .925-.176 1.26-.487.334-.311.522-.733.522-1.173V33.558c0-.44-.188-.862-.522-1.174a1.856 1.856 0 00-1.26-.486H246.232z" fill="#E6E6E6"/><path d="M246.455 61.142h119.869V33.766H246.455v27.377z" fill="#fff"/><path d="M260.084 41.644c-.414 0-.811.153-1.103.426a1.402 1.402 0 00-.457 1.027c0 .385.164.754.457 1.027.292.272.689.425 1.103.425h92.607c.205 0 .408-.037.597-.11.189-.073.361-.18.506-.315a1.44 1.44 0 00.338-.471 1.356 1.356 0 00.001-1.112 1.443 1.443 0 00-.338-.47 1.576 1.576 0 00-.506-.316 1.66 1.66 0 00-.597-.11h-92.608zM260.084 50.358c-.414.001-.81.154-1.101.427a1.403 1.403 0 00-.456 1.026c0 .385.164.754.456 1.026.291.272.687.425 1.101.426h92.607a1.62 1.62 0 001.104-.423c.293-.272.458-.64.459-1.026a1.402 1.402 0 00-.454-1.028 1.62 1.62 0 00-1.102-.428h-92.614z" fill="#E4E4E4"/><path d="M162.565 79.055c-.472 0-.925.176-1.259.487a1.601 1.601 0 00-.523 1.173v27.792c0 .44.188.862.523 1.174a1.85 1.85 0 001.259.486H282.88a1.85 1.85 0 001.26-.486c.334-.312.522-.734.523-1.174V80.715a1.608 1.608 0 00-.523-1.173 1.852 1.852 0 00-1.26-.487H162.565z" fill="#fff"/><path d="M162.565 79.055c-.472 0-.925.176-1.259.487a1.601 1.601 0 00-.523 1.173v27.792c0 .44.188.862.523 1.174a1.85 1.85 0 001.259.486H282.88a1.85 1.85 0 001.26-.486c.334-.312.522-.734.523-1.174V80.715a1.608 1.608 0 00-.523-1.173 1.852 1.852 0 00-1.26-.487H162.565z" fill="#E6E6E6"/><path d="M162.788 108.3h119.869V80.922H162.788V108.3z" fill="#fff"/><path d="M176.417 88.802c-.414 0-.81.152-1.103.425a1.406 1.406 0 00-.457 1.027c0 .385.165.754.457 1.027.293.272.689.425 1.103.425h92.608c.204 0 .407-.037.596-.11.19-.073.362-.18.507-.315.144-.135.259-.295.338-.47a1.356 1.356 0 000-1.112 1.443 1.443 0 00-.338-.472 1.563 1.563 0 00-.505-.315 1.663 1.663 0 00-.597-.11h-92.609zM176.417 97.516a1.62 1.62 0 00-1.101.426 1.403 1.403 0 00-.456 1.026c0 .385.164.754.456 1.026a1.62 1.62 0 001.101.427h92.608c.413 0 .81-.152 1.103-.424.294-.271.459-.64.46-1.025a1.403 1.403 0 00-.455-1.028 1.617 1.617 0 00-1.101-.428h-92.615z" fill="#E4E4E4"/><path d="M309.22 153.647a3.875 3.875 0 001.513-.48c.46-.26.854-.612 1.153-1.03.298-.418.495-.892.576-1.388a3.21 3.21 0 00-.108-1.485l10.663-7.092-6.355-2.279-9.151 7.085a3.642 3.642 0 00-1.988 1.609 3.244 3.244 0 00-.339 2.432 3.454 3.454 0 001.482 2.028 3.915 3.915 0 002.554.6z" fill="#FFB7B7"/><path d="M315.14 148.976l-3.537-5.626.075-.08 14.272-15.131 11.081-17.597 9.622 1.142.142 2.708-.028.041-15.288 21.4-.016.013-16.323 13.13z" fill="#3F3D56"/><path d="M362.295 244.177l-5.442-.001-2.589-19.546 8.032.001-.001 19.546z" fill="#FFB7B7"/><path d="M363.683 249.089l-17.547-.001v-.207c0-1.686.72-3.304 2.001-4.496 1.28-1.193 3.017-1.863 4.829-1.863h10.717v6.567z" fill="#2F2E41"/><path d="M315.461 244.011l-5.293-1.177 2.357-19.572 7.811 1.737-4.875 19.012z" fill="#FFB7B7"/><path d="M315.586 249.089l-17.066-3.795.051-.201c.421-1.641 1.524-3.059 3.067-3.942a7.262 7.262 0 015.162-.767l10.424 2.318-1.638 6.387zM336.61 101.605v-8.53c0-3.03 1.293-5.938 3.595-8.082 2.302-2.143 5.424-3.347 8.679-3.347 3.256 0 6.378 1.204 8.679 3.347 2.302 2.144 3.595 5.051 3.595 8.083v8.529c0 .407-.174.798-.483 1.086a1.72 1.72 0 01-1.165.45h-21.251a1.724 1.724 0 01-1.166-.45 1.486 1.486 0 01-.483-1.086z" fill="#2F2E41"/><path d="M345.855 103.011c4.97 0 8.999-3.752 8.999-8.38 0-4.628-4.029-8.38-8.999-8.38-4.97 0-8.999 3.752-8.999 8.38 0 4.628 4.029 8.38 8.999 8.38z" fill="#FFB7B7"/><path d="M333.706 93.758c.003-2.397 1.027-4.695 2.847-6.39 1.821-1.695 4.289-2.649 6.863-2.652h1.832c2.574.003 5.042.957 6.862 2.652 1.82 1.695 2.844 3.993 2.847 6.39v.17h-3.871l-1.321-3.443-.264 3.444H347.5l-.666-1.738-.133 1.737h-12.995v-.17z" fill="#2F2E41"/><path d="M351.104 138.86l-22.913-.812-1.281-13.959c-.987-2.555-1.003-4.749-.047-6.52.823-1.455 2.204-2.567 3.869-3.114l5.014-5.639a6.783 6.783 0 012.372-1.705 7.246 7.246 0 012.927-.595l13.026.083c.314-.176 2.218-1.077 5.975.439 4.074 1.645 3.128 7.357 3.118 7.414l-.01.054-.044.035-8.665 6.795-3.341 17.524z" fill="#3F3D56"/><path d="M328.374 136.549l-10.838 18.401-8.217 83.715 9.284 2.64 16.433-65.487 19.072 63.629 11.129.26-7.577-73.429-6.622-28.429-22.664-1.3z" fill="#2F2E41"/><path d="M258.229 122.909a1.905 1.905 0 00-1.359.101c-.421.2-.74.547-.886.966l-9.203 26.438c-.146.419-.106.874.108 1.266.215.392.588.689 1.038.825l114.451 34.549c.45.136.939.099 1.36-.101.421-.2.739-.547.885-.966l9.204-26.438a1.559 1.559 0 00-.109-1.266 1.76 1.76 0 00-1.037-.825l-114.452-34.549z" fill="#fff"/><path d="M258.229 122.909a1.905 1.905 0 00-1.359.101c-.421.2-.74.547-.886.966l-9.203 26.438c-.146.419-.106.874.108 1.266.215.392.588.689 1.038.825l114.451 34.549c.45.136.939.099 1.36-.101.421-.2.739-.547.885-.966l9.204-26.438a1.559 1.559 0 00-.109-1.266 1.76 1.76 0 00-1.037-.825l-114.452-34.549z" fill="#E6E6E6"/><path d="M248.757 150.792l114.027 34.422 9.066-26.043-114.027-34.422-9.066 26.043z" fill="#fff"/><path d="M268.178 136.158a1.661 1.661 0 00-1.189.088c-.369.175-.647.48-.775.846-.127.366-.093.765.095 1.108.187.343.514.602.907.721l88.095 26.593c.195.06.4.082.604.067.205-.014.404-.067.587-.153.182-.087.345-.206.478-.351s.234-.314.297-.495a1.351 1.351 0 00-.094-1.109 1.472 1.472 0 00-.377-.445 1.579 1.579 0 00-.532-.276l-.001-.001-88.095-26.593zM265.293 144.448a1.666 1.666 0 00-1.189.089 1.49 1.49 0 00-.773.845c-.127.366-.094.764.094 1.107.187.343.513.602.906.722l88.094 26.593c.393.12.822.089 1.19-.086.369-.174.649-.478.777-.844a1.364 1.364 0 00-.092-1.108 1.532 1.532 0 00-.906-.723l-.007-.002-88.094-26.593z" fill="#FFDA63"/><path d="M357.33 166.338c.401-.335.718-.748.929-1.21a3.226 3.226 0 00-.107-2.904 3.493 3.493 0 00-1.016-1.148l4.231-11.549-6.591 1.595-3.007 10.722a3.27 3.27 0 00-.61 2.386 3.392 3.392 0 001.247 2.161 3.871 3.871 0 002.473.845 3.863 3.863 0 002.451-.898z" fill="#FFB7B7"/><path d="M359.22 159.33l-6.395-2.654 2.149-20.146-1.999-20.315 8.536-4.291 1.809 2.125.002.048.959 25.688-.005.02-5.056 19.525z" fill="#3F3D56"/><path d="M491.253 250H156.857a.797.797 0 01-.471-.139.712.712 0 01-.282-.377.664.664 0 01.13-.603.75.75 0 01.262-.2.797.797 0 01.33-.072h334.366a.835.835 0 01.497.144.74.74 0 01.294.4.659.659 0 01-.147.587.756.756 0 01-.583.26zM112.551 250H.776a.797.797 0 01-.47-.139.715.715 0 01-.283-.377.652.652 0 01.13-.603.744.744 0 01.263-.2.794.794 0 01.33-.072H112.49a.837.837 0 01.497.144.74.74 0 01.294.4.659.659 0 01-.147.587.756.756 0 01-.583.26z" fill="#CCC"/></g><defs><clipPath id="clip0"><path fill="#fff" d="M0 0h492v250H0z"/></clipPath></defs></svg>