<svg width="115" height="15" fill="none" xmlns="http://www.w3.org/2000/svg"><path d="M7.388 1.49v1.674h-5.31v3.69h4.14v1.674h-4.14V14H.026V1.49h7.362zM18.38 8.798c0 .372-.024.708-.072 1.008h-7.579c.06.792.355 1.428.883 1.908.527.48 1.175.72 1.944.72 1.104 0 1.884-.462 2.34-1.386h2.213a4.498 4.498 0 01-1.638 2.25c-.78.576-1.752.864-2.915.864-.948 0-1.8-.21-2.556-.63a4.708 4.708 0 01-1.765-1.8c-.42-.78-.63-1.68-.63-2.7 0-1.02.204-1.914.612-2.682a4.428 4.428 0 011.746-1.8c.757-.42 1.62-.63 2.593-.63.936 0 1.77.204 2.502.612a4.31 4.31 0 011.71 1.728c.407.732.611 1.578.611 2.538zm-2.142-.648c-.012-.756-.282-1.362-.81-1.818-.529-.456-1.183-.684-1.963-.684-.707 0-1.313.228-1.817.684-.505.444-.804 1.05-.9 1.818h5.49zm3.477.846c0-.996.204-1.878.612-2.646.42-.768.984-1.362 1.692-1.782a4.532 4.532 0 012.376-.648c.78 0 1.458.156 2.034.468.588.3 1.056.678 1.404 1.134v-1.44h2.07V14h-2.07v-1.476c-.348.468-.822.858-1.422 1.17-.6.312-1.284.468-2.052.468a4.406 4.406 0 01-2.34-.648 4.81 4.81 0 01-1.692-1.836c-.408-.792-.612-1.686-.612-2.682zm8.118.036c0-.684-.144-1.278-.432-1.782a2.907 2.907 0 00-1.098-1.152 2.896 2.896 0 00-1.476-.396c-.528 0-1.02.132-1.476.396-.456.252-.828.63-1.116 1.134-.276.492-.414 1.08-.414 1.764 0 .684.138 1.284.414 1.8.288.516.66.912 1.116 1.188.468.264.96.396 1.476.396.528 0 1.02-.132 1.476-.396a2.907 2.907 0 001.098-1.152c.288-.516.432-1.116.432-1.8zm7.159-3.276v5.49c0 .372.084.642.252.81.18.156.48.234.9.234h1.26V14h-1.62c-.924 0-1.632-.216-2.124-.648-.492-.432-.738-1.134-.738-2.106v-5.49h-1.17V4.082h1.17V1.616h2.07v2.466h2.412v1.674h-2.412zm13.285-1.674V14h-2.052v-1.17c-.324.408-.75.732-1.278.972a4.051 4.051 0 01-1.656.342c-.78 0-1.482-.162-2.106-.486a3.582 3.582 0 01-1.458-1.44c-.348-.636-.522-1.404-.522-2.304V4.082h2.034v5.526c0 .888.222 1.572.666 2.052.444.468 1.05.702 1.818.702s1.374-.234 1.818-.702c.456-.48.684-1.164.684-2.052V4.082h2.052zm4.76 1.44c.3-.504.696-.894 1.188-1.17.504-.288 1.098-.432 1.782-.432v2.124h-.522c-.804 0-1.416.204-1.836.612-.408.408-.612 1.116-.612 2.124V14h-2.052V4.082h2.052v1.44zm13.946 3.276c0 .372-.024.708-.072 1.008h-7.578c.06.792.354 1.428.882 1.908s1.176.72 1.944.72c1.104 0 1.884-.462 2.34-1.386h2.214a4.498 4.498 0 01-1.638 2.25c-.78.576-1.752.864-2.916.864-.948 0-1.8-.21-2.556-.63a4.708 4.708 0 01-1.764-1.8c-.42-.78-.63-1.68-.63-2.7 0-1.02.204-1.914.612-2.682a4.428 4.428 0 011.746-1.8c.756-.42 1.62-.63 2.592-.63.936 0 1.77.204 2.502.612a4.31 4.31 0 011.71 1.728c.408.732.612 1.578.612 2.538zm-2.142-.648c-.012-.756-.282-1.362-.81-1.818-.528-.456-1.182-.684-1.962-.684-.708 0-1.314.228-1.818.684-.504.444-.804 1.05-.9 1.818h5.49zm5.205-5.382c-.372 0-.684-.126-.936-.378a1.271 1.271 0 01-.378-.936c0-.372.126-.684.378-.936s.564-.378.936-.378c.36 0 .666.126.918.378s.378.564.378.936c0 .372-.126.684-.378.936a1.25 1.25 0 01-.918.378zm1.008 1.314V14h-2.052V4.082h2.052zm6.294 10.08c-.78 0-1.482-.138-2.106-.414-.612-.288-1.098-.672-1.458-1.152a2.915 2.915 0 01-.576-1.638h2.124c.036.42.234.774.594 1.062.372.276.834.414 1.386.414.576 0 1.02-.108 1.332-.324.324-.228.486-.516.486-.864 0-.372-.18-.648-.54-.828-.348-.18-.906-.378-1.674-.594a16.244 16.244 0 01-1.818-.594 3.263 3.263 0 01-1.224-.882c-.336-.396-.504-.918-.504-1.566 0-.528.156-1.008.468-1.44.312-.444.756-.792 1.332-1.044.588-.252 1.26-.378 2.016-.378 1.128 0 2.034.288 2.718.864.696.564 1.068 1.338 1.116 2.322h-2.052c-.036-.444-.216-.798-.54-1.062-.324-.264-.762-.396-1.314-.396-.54 0-.954.102-1.242.306-.288.204-.432.474-.432.81 0 .264.096.486.288.666.192.18.426.324.702.432.276.096.684.222 1.224.378.72.192 1.308.39 1.764.594.468.192.87.48 1.206.864.336.384.51.894.522 1.53 0 .564-.156 1.068-.468 1.512-.312.444-.756.792-1.332 1.044-.564.252-1.23.378-1.998.378zm8.41-8.406v5.49c0 .372.084.642.252.81.18.156.48.234.9.234h1.26V14h-1.62c-.924 0-1.632-.216-2.124-.648-.492-.432-.738-1.134-.738-2.106v-5.49h-1.17V4.082h1.17V1.616h2.07v2.466h2.412v1.674h-2.412zm5.13 8.37c-.371 0-.683-.126-.935-.378a1.271 1.271 0 01-.378-.936c0-.372.126-.684.378-.936s.564-.378.936-.378c.36 0 .666.126.918.378s.378.564.378.936c0 .372-.126.684-.378.936a1.25 1.25 0 01-.918.378zm2.83-5.094c0-1.02.205-1.914.613-2.682.42-.78.996-1.38 1.728-1.8.732-.42 1.572-.63 2.52-.63 1.2 0 2.19.288 2.97.864.792.564 1.326 1.374 1.602 2.43h-2.214a2.341 2.341 0 00-.864-1.152c-.396-.276-.894-.414-1.494-.414-.84 0-1.512.3-2.016.9-.492.588-.738 1.416-.738 2.484s.246 1.902.738 2.502c.504.6 1.176.9 2.016.9 1.188 0 1.974-.522 2.358-1.566h2.214c-.288 1.008-.828 1.812-1.62 2.412-.792.588-1.776.882-2.952.882-.948 0-1.788-.21-2.52-.63a4.62 4.62 0 01-1.728-1.8c-.408-.78-.612-1.68-.612-2.7zm15.78 5.13c-.936 0-1.782-.21-2.538-.63a4.67 4.67 0 01-1.782-1.8c-.432-.78-.648-1.68-.648-2.7 0-1.008.222-1.902.666-2.682a4.6 4.6 0 011.818-1.8c.768-.42 1.626-.63 2.574-.63s1.806.21 2.574.63a4.6 4.6 0 011.818 1.8c.444.78.666 1.674.666 2.682s-.228 1.902-.684 2.682a4.783 4.783 0 01-1.872 1.818c-.78.42-1.644.63-2.592.63zm0-1.782c.528 0 1.02-.126 1.476-.378.468-.252.846-.63 1.134-1.134.288-.504.432-1.116.432-1.836s-.138-1.326-.414-1.818c-.276-.504-.642-.882-1.098-1.134a3.003 3.003 0 00-1.476-.378c-.528 0-1.02.126-1.476.378-.444.252-.798.63-1.062 1.134-.264.492-.396 1.098-.396 1.818 0 1.068.27 1.896.81 2.484.552.576 1.242.864 2.07.864z" fill="#7F52CA"/><path d="M7.388 1.49v1.674h-5.31v3.69h4.14v1.674h-4.14V14H.026V1.49h7.362zM18.38 8.798c0 .372-.024.708-.072 1.008h-7.579c.06.792.355 1.428.883 1.908.527.48 1.175.72 1.944.72 1.104 0 1.884-.462 2.34-1.386h2.213a4.498 4.498 0 01-1.638 2.25c-.78.576-1.752.864-2.915.864-.948 0-1.8-.21-2.556-.63a4.708 4.708 0 01-1.765-1.8c-.42-.78-.63-1.68-.63-2.7 0-1.02.204-1.914.612-2.682a4.428 4.428 0 011.746-1.8c.757-.42 1.62-.63 2.593-.63.936 0 1.77.204 2.502.612a4.31 4.31 0 011.71 1.728c.407.732.611 1.578.611 2.538zm-2.142-.648c-.012-.756-.282-1.362-.81-1.818-.529-.456-1.183-.684-1.963-.684-.707 0-1.313.228-1.817.684-.505.444-.804 1.05-.9 1.818h5.49zm3.477.846c0-.996.204-1.878.612-2.646.42-.768.984-1.362 1.692-1.782a4.532 4.532 0 012.376-.648c.78 0 1.458.156 2.034.468.588.3 1.056.678 1.404 1.134v-1.44h2.07V14h-2.07v-1.476c-.348.468-.822.858-1.422 1.17-.6.312-1.284.468-2.052.468a4.406 4.406 0 01-2.34-.648 4.81 4.81 0 01-1.692-1.836c-.408-.792-.612-1.686-.612-2.682zm8.118.036c0-.684-.144-1.278-.432-1.782a2.907 2.907 0 00-1.098-1.152 2.896 2.896 0 00-1.476-.396c-.528 0-1.02.132-1.476.396-.456.252-.828.63-1.116 1.134-.276.492-.414 1.08-.414 1.764 0 .684.138 1.284.414 1.8.288.516.66.912 1.116 1.188.468.264.96.396 1.476.396.528 0 1.02-.132 1.476-.396a2.907 2.907 0 001.098-1.152c.288-.516.432-1.116.432-1.8zm7.159-3.276v5.49c0 .372.084.642.252.81.18.156.48.234.9.234h1.26V14h-1.62c-.924 0-1.632-.216-2.124-.648-.492-.432-.738-1.134-.738-2.106v-5.49h-1.17V4.082h1.17V1.616h2.07v2.466h2.412v1.674h-2.412zm13.285-1.674V14h-2.052v-1.17c-.324.408-.75.732-1.278.972a4.051 4.051 0 01-1.656.342c-.78 0-1.482-.162-2.106-.486a3.582 3.582 0 01-1.458-1.44c-.348-.636-.522-1.404-.522-2.304V4.082h2.034v5.526c0 .888.222 1.572.666 2.052.444.468 1.05.702 1.818.702s1.374-.234 1.818-.702c.456-.48.684-1.164.684-2.052V4.082h2.052zm4.76 1.44c.3-.504.696-.894 1.188-1.17.504-.288 1.098-.432 1.782-.432v2.124h-.522c-.804 0-1.416.204-1.836.612-.408.408-.612 1.116-.612 2.124V14h-2.052V4.082h2.052v1.44zm13.946 3.276c0 .372-.024.708-.072 1.008h-7.578c.06.792.354 1.428.882 1.908s1.176.72 1.944.72c1.104 0 1.884-.462 2.34-1.386h2.214a4.498 4.498 0 01-1.638 2.25c-.78.576-1.752.864-2.916.864-.948 0-1.8-.21-2.556-.63a4.708 4.708 0 01-1.764-1.8c-.42-.78-.63-1.68-.63-2.7 0-1.02.204-1.914.612-2.682a4.428 4.428 0 011.746-1.8c.756-.42 1.62-.63 2.592-.63.936 0 1.77.204 2.502.612a4.31 4.31 0 011.71 1.728c.408.732.612 1.578.612 2.538zm-2.142-.648c-.012-.756-.282-1.362-.81-1.818-.528-.456-1.182-.684-1.962-.684-.708 0-1.314.228-1.818.684-.504.444-.804 1.05-.9 1.818h5.49zm5.205-5.382c-.372 0-.684-.126-.936-.378a1.271 1.271 0 01-.378-.936c0-.372.126-.684.378-.936s.564-.378.936-.378c.36 0 .666.126.918.378s.378.564.378.936c0 .372-.126.684-.378.936a1.25 1.25 0 01-.918.378zm1.008 1.314V14h-2.052V4.082h2.052zm6.294 10.08c-.78 0-1.482-.138-2.106-.414-.612-.288-1.098-.672-1.458-1.152a2.915 2.915 0 01-.576-1.638h2.124c.036.42.234.774.594 1.062.372.276.834.414 1.386.414.576 0 1.02-.108 1.332-.324.324-.228.486-.516.486-.864 0-.372-.18-.648-.54-.828-.348-.18-.906-.378-1.674-.594a16.244 16.244 0 01-1.818-.594 3.263 3.263 0 01-1.224-.882c-.336-.396-.504-.918-.504-1.566 0-.528.156-1.008.468-1.44.312-.444.756-.792 1.332-1.044.588-.252 1.26-.378 2.016-.378 1.128 0 2.034.288 2.718.864.696.564 1.068 1.338 1.116 2.322h-2.052c-.036-.444-.216-.798-.54-1.062-.324-.264-.762-.396-1.314-.396-.54 0-.954.102-1.242.306-.288.204-.432.474-.432.81 0 .264.096.486.288.666.192.18.426.324.702.432.276.096.684.222 1.224.378.72.192 1.308.39 1.764.594.468.192.87.48 1.206.864.336.384.51.894.522 1.53 0 .564-.156 1.068-.468 1.512-.312.444-.756.792-1.332 1.044-.564.252-1.23.378-1.998.378zm8.41-8.406v5.49c0 .372.084.642.252.81.18.156.48.234.9.234h1.26V14h-1.62c-.924 0-1.632-.216-2.124-.648-.492-.432-.738-1.134-.738-2.106v-5.49h-1.17V4.082h1.17V1.616h2.07v2.466h2.412v1.674h-2.412zm5.13 8.37c-.371 0-.683-.126-.935-.378a1.271 1.271 0 01-.378-.936c0-.372.126-.684.378-.936s.564-.378.936-.378c.36 0 .666.126.918.378s.378.564.378.936c0 .372-.126.684-.378.936a1.25 1.25 0 01-.918.378zm2.83-5.094c0-1.02.205-1.914.613-2.682.42-.78.996-1.38 1.728-1.8.732-.42 1.572-.63 2.52-.63 1.2 0 2.19.288 2.97.864.792.564 1.326 1.374 1.602 2.43h-2.214a2.341 2.341 0 00-.864-1.152c-.396-.276-.894-.414-1.494-.414-.84 0-1.512.3-2.016.9-.492.588-.738 1.416-.738 2.484s.246 1.902.738 2.502c.504.6 1.176.9 2.016.9 1.188 0 1.974-.522 2.358-1.566h2.214c-.288 1.008-.828 1.812-1.62 2.412-.792.588-1.776.882-2.952.882-.948 0-1.788-.21-2.52-.63a4.62 4.62 0 01-1.728-1.8c-.408-.78-.612-1.68-.612-2.7zm15.78 5.13c-.936 0-1.782-.21-2.538-.63a4.67 4.67 0 01-1.782-1.8c-.432-.78-.648-1.68-.648-2.7 0-1.008.222-1.902.666-2.682a4.6 4.6 0 011.818-1.8c.768-.42 1.626-.63 2.574-.63s1.806.21 2.574.63a4.6 4.6 0 011.818 1.8c.444.78.666 1.674.666 2.682s-.228 1.902-.684 2.682a4.783 4.783 0 01-1.872 1.818c-.78.42-1.644.63-2.592.63zm0-1.782c.528 0 1.02-.126 1.476-.378.468-.252.846-.63 1.134-1.134.288-.504.432-1.116.432-1.836s-.138-1.326-.414-1.818c-.276-.504-.642-.882-1.098-1.134a3.003 3.003 0 00-1.476-.378c-.528 0-1.02.126-1.476.378-.444.252-.798.63-1.062 1.134-.264.492-.396 1.098-.396 1.818 0 1.068.27 1.896.81 2.484.552.576 1.242.864 2.07.864z" fill="url(#paint0_linear)" fill-opacity=".2"/><defs><linearGradient id="paint0_linear" x1="65.906" y1="8.286" x2="87.057" y2="8.286" gradientUnits="userSpaceOnUse"><stop stop-color="#FF6B00" stop-opacity=".94"/><stop offset="1" stop-opacity="0"/></linearGradient></defs></svg>