<?xml version="1.0" encoding="UTF-8"?>
<svg width="209px" height="48px" viewBox="0 0 209 48" version="1.1" xmlns="http://www.w3.org/2000/svg" xmlns:xlink="http://www.w3.org/1999/xlink">
    <title>navbarLogo</title>
    <defs>
        <linearGradient x1="50%" y1="0%" x2="50%" y2="100%" id="linearGradient-1">
            <stop stop-color="#FF6B00" stop-opacity="0.94" offset="47.51%"></stop>
            <stop stop-color="#000000" stop-opacity="0" offset="100%"></stop>
        </linearGradient>
        <linearGradient x1="57.4112098%" y1="97.3165383%" x2="75.7077629%" y2="97.3165383%" id="linearGradient-2">
            <stop stop-color="#FF6B00" stop-opacity="0.94" offset="0%"></stop>
            <stop stop-color="#000000" stop-opacity="0" offset="100%"></stop>
        </linearGradient>
    </defs>
    <g id="Page-1" stroke="none" stroke-width="1" fill="none" fill-rule="evenodd">
        <g id="navbarLogo" fill-rule="nonzero">
            <circle id="Oval" fill="#7F52CA" cx="24" cy="24" r="24"></circle>
            <circle id="Oval" fill-opacity="0.2" fill="url(#linearGradient-1)" cx="24" cy="24" r="24"></circle>
            <polygon id="Path" fill="#FFFFFF" points="29.521 16.272 29.521 18.048 22.249 18.048 22.249 23.688 28.153 23.688 28.153 25.464 22.249 25.464 22.249 33 20.065 33 20.065 16.272"></polygon>
            <path d="M65.8504,15.32 L65.8504,17.552 L58.7704,17.552 L58.7704,22.472 L64.2904,22.472 L64.2904,24.704 L58.7704,24.704 L58.7704,32 L56.0344,32 L56.0344,15.32 L65.8504,15.32 Z M80.5059,25.064 C80.5059,25.56 80.4739,26.008 80.4099,26.408 L70.3059,26.408 C70.3859,27.464 70.7779,28.312 71.4819,28.952 C72.1859,29.592 73.0499,29.912 74.0739,29.912 C75.5459,29.912 76.5859,29.296 77.1939,28.064 L80.1459,28.064 C79.7459,29.28 79.0179,30.28 77.9619,31.064 C76.9219,31.832 75.6259,32.216 74.0739,32.216 C72.8099,32.216 71.6739,31.936 70.6659,31.376 C69.6739,30.8 68.8899,30 68.3139,28.976 C67.7539,27.936 67.4739,26.736 67.4739,25.376 C67.4739,24.016 67.7459,22.824 68.2899,21.8 C68.8499,20.76 69.6259,19.96 70.6179,19.4 C71.6259,18.84 72.7779,18.56 74.0739,18.56 C75.3219,18.56 76.4339,18.832 77.4099,19.376 C78.3859,19.92 79.1459,20.688 79.6899,21.68 C80.2339,22.656 80.5059,23.784 80.5059,25.064 Z M77.6499,24.2 C77.6339,23.192 77.2739,22.384 76.5699,21.776 C75.8659,21.168 74.9939,20.864 73.9539,20.864 C73.0099,20.864 72.2019,21.168 71.5299,21.776 C70.8579,22.368 70.4579,23.176 70.3299,24.2 L77.6499,24.2 Z M82.2864,25.328 C82.2864,24 82.5584,22.824 83.1024,21.8 C83.6624,20.776 84.4144,19.984 85.3584,19.424 C86.3184,18.848 87.3744,18.56 88.5264,18.56 C89.5664,18.56 90.4704,18.768 91.2384,19.184 C92.0224,19.584 92.6464,20.088 93.1104,20.696 L93.1104,18.776 L95.8704,18.776 L95.8704,32 L93.1104,32 L93.1104,30.032 C92.6464,30.656 92.0144,31.176 91.2144,31.592 C90.4144,32.008 89.5024,32.216 88.4784,32.216 C87.3424,32.216 86.3024,31.928 85.3584,31.352 C84.4144,30.76 83.6624,29.944 83.1024,28.904 C82.5584,27.848 82.2864,26.656 82.2864,25.328 Z M93.1104,25.376 C93.1104,24.464 92.9184,23.672 92.5344,23 C92.1664,22.328 91.6784,21.816 91.0704,21.464 C90.4624,21.112 89.8064,20.936 89.1024,20.936 C88.3984,20.936 87.7424,21.112 87.1344,21.464 C86.5264,21.8 86.0304,22.304 85.6464,22.976 C85.2784,23.632 85.0944,24.416 85.0944,25.328 C85.0944,26.24 85.2784,27.04 85.6464,27.728 C86.0304,28.416 86.5264,28.944 87.1344,29.312 C87.7584,29.664 88.4144,29.84 89.1024,29.84 C89.8064,29.84 90.4624,29.664 91.0704,29.312 C91.6784,28.96 92.1664,28.448 92.5344,27.776 C92.9184,27.088 93.1104,26.288 93.1104,25.376 Z M102.656,21.008 L102.656,28.328 C102.656,28.824 102.768,29.184 102.992,29.408 C103.232,29.616 103.632,29.72 104.192,29.72 L105.872,29.72 L105.872,32 L103.712,32 C102.48,32 101.536,31.712 100.88,31.136 C100.224,30.56 99.8961,29.624 99.8961,28.328 L99.8961,21.008 L98.3361,21.008 L98.3361,18.776 L99.8961,18.776 L99.8961,15.488 L102.656,15.488 L102.656,18.776 L105.872,18.776 L105.872,21.008 L102.656,21.008 Z M120.37,18.776 L120.37,32 L117.634,32 L117.634,30.44 C117.202,30.984 116.634,31.416 115.93,31.736 C115.242,32.04 114.506,32.192 113.722,32.192 C112.682,32.192 111.746,31.976 110.914,31.544 C110.098,31.112 109.45,30.472 108.97,29.624 C108.506,28.776 108.274,27.752 108.274,26.552 L108.274,18.776 L110.986,18.776 L110.986,26.144 C110.986,27.328 111.282,28.24 111.874,28.88 C112.466,29.504 113.274,29.816 114.298,29.816 C115.322,29.816 116.13,29.504 116.722,28.88 C117.33,28.24 117.634,27.328 117.634,26.144 L117.634,18.776 L120.37,18.776 Z M126.716,20.696 C127.116,20.024 127.644,19.504 128.3,19.136 C128.972,18.752 129.764,18.56 130.676,18.56 L130.676,21.392 L129.98,21.392 C128.908,21.392 128.092,21.664 127.532,22.208 C126.988,22.752 126.716,23.696 126.716,25.04 L126.716,32 L123.98,32 L123.98,18.776 L126.716,18.776 L126.716,20.696 Z M145.311,25.064 C145.311,25.56 145.279,26.008 145.215,26.408 L135.111,26.408 C135.191,27.464 135.583,28.312 136.287,28.952 C136.991,29.592 137.855,29.912 138.879,29.912 C140.351,29.912 141.391,29.296 141.999,28.064 L144.951,28.064 C144.551,29.28 143.823,30.28 142.767,31.064 C141.727,31.832 140.431,32.216 138.879,32.216 C137.615,32.216 136.479,31.936 135.471,31.376 C134.479,30.8 133.695,30 133.119,28.976 C132.559,27.936 132.279,26.736 132.279,25.376 C132.279,24.016 132.551,22.824 133.095,21.8 C133.655,20.76 134.431,19.96 135.423,19.4 C136.431,18.84 137.583,18.56 138.879,18.56 C140.127,18.56 141.239,18.832 142.215,19.376 C143.191,19.92 143.951,20.688 144.495,21.68 C145.039,22.656 145.311,23.784 145.311,25.064 Z M142.455,24.2 C142.439,23.192 142.079,22.384 141.375,21.776 C140.671,21.168 139.799,20.864 138.759,20.864 C137.815,20.864 137.007,21.168 136.335,21.776 C135.663,22.368 135.263,23.176 135.135,24.2 L142.455,24.2 Z M149.395,17.024 C148.899,17.024 148.483,16.856 148.147,16.52 C147.811,16.184 147.643,15.768 147.643,15.272 C147.643,14.776 147.811,14.36 148.147,14.024 C148.483,13.688 148.899,13.52 149.395,13.52 C149.875,13.52 150.283,13.688 150.619,14.024 C150.955,14.36 151.123,14.776 151.123,15.272 C151.123,15.768 150.955,16.184 150.619,16.52 C150.283,16.856 149.875,17.024 149.395,17.024 Z M150.739,18.776 L150.739,32 L148.003,32 L148.003,18.776 L150.739,18.776 Z M159.131,32.216 C158.091,32.216 157.155,32.032 156.323,31.664 C155.507,31.28 154.859,30.768 154.379,30.128 C153.899,29.472 153.643,28.744 153.611,27.944 L156.443,27.944 C156.491,28.504 156.755,28.976 157.235,29.36 C157.731,29.728 158.347,29.912 159.083,29.912 C159.851,29.912 160.443,29.768 160.859,29.48 C161.291,29.176 161.507,28.792 161.507,28.328 C161.507,27.832 161.267,27.464 160.787,27.224 C160.323,26.984 159.579,26.72 158.555,26.432 C157.563,26.16 156.755,25.896 156.131,25.64 C155.507,25.384 154.963,24.992 154.499,24.464 C154.051,23.936 153.827,23.24 153.827,22.376 C153.827,21.672 154.035,21.032 154.451,20.456 C154.867,19.864 155.459,19.4 156.227,19.064 C157.011,18.728 157.907,18.56 158.915,18.56 C160.419,18.56 161.627,18.944 162.539,19.712 C163.467,20.464 163.963,21.496 164.027,22.808 L161.291,22.808 C161.243,22.216 161.003,21.744 160.571,21.392 C160.139,21.04 159.555,20.864 158.819,20.864 C158.099,20.864 157.547,21 157.163,21.272 C156.779,21.544 156.587,21.904 156.587,22.352 C156.587,22.704 156.715,23 156.971,23.24 C157.227,23.48 157.539,23.672 157.907,23.816 C158.275,23.944 158.819,24.112 159.539,24.32 C160.499,24.576 161.283,24.84 161.891,25.112 C162.515,25.368 163.051,25.752 163.499,26.264 C163.947,26.776 164.179,27.456 164.195,28.304 C164.195,29.056 163.987,29.728 163.571,30.32 C163.155,30.912 162.563,31.376 161.795,31.712 C161.043,32.048 160.155,32.216 159.131,32.216 Z M170.344,21.008 L170.344,28.328 C170.344,28.824 170.456,29.184 170.68,29.408 C170.92,29.616 171.32,29.72 171.88,29.72 L173.56,29.72 L173.56,32 L171.4,32 C170.168,32 169.224,31.712 168.568,31.136 C167.912,30.56 167.584,29.624 167.584,28.328 L167.584,21.008 L166.024,21.008 L166.024,18.776 L167.584,18.776 L167.584,15.488 L170.344,15.488 L170.344,18.776 L173.56,18.776 L173.56,21.008 L170.344,21.008 Z M177.185,32.168 C176.689,32.168 176.273,32 175.937,31.664 C175.601,31.328 175.433,30.912 175.433,30.416 C175.433,29.92 175.601,29.504 175.937,29.168 C176.273,28.832 176.689,28.664 177.185,28.664 C177.665,28.664 178.073,28.832 178.409,29.168 C178.745,29.504 178.913,29.92 178.913,30.416 C178.913,30.912 178.745,31.328 178.409,31.664 C178.073,32 177.665,32.168 177.185,32.168 Z M180.958,25.376 C180.958,24.016 181.23,22.824 181.774,21.8 C182.334,20.76 183.102,19.96 184.078,19.4 C185.054,18.84 186.174,18.56 187.438,18.56 C189.038,18.56 190.358,18.944 191.398,19.712 C192.454,20.464 193.166,21.544 193.534,22.952 L190.582,22.952 C190.342,22.296 189.958,21.784 189.43,21.416 C188.902,21.048 188.238,20.864 187.438,20.864 C186.318,20.864 185.422,21.264 184.75,22.064 C184.094,22.848 183.766,23.952 183.766,25.376 C183.766,26.8 184.094,27.912 184.75,28.712 C185.422,29.512 186.318,29.912 187.438,29.912 C189.022,29.912 190.07,29.216 190.582,27.824 L193.534,27.824 C193.15,29.168 192.43,30.24 191.374,31.04 C190.318,31.824 189.006,32.216 187.438,32.216 C186.174,32.216 185.054,31.936 184.078,31.376 C183.102,30.8 182.334,30 181.774,28.976 C181.23,27.936 180.958,26.736 180.958,25.376 Z M201.997,32.216 C200.749,32.216 199.621,31.936 198.613,31.376 C197.605,30.8 196.813,30 196.237,28.976 C195.661,27.936 195.373,26.736 195.373,25.376 C195.373,24.032 195.669,22.84 196.261,21.8 C196.853,20.76 197.661,19.96 198.685,19.4 C199.709,18.84 200.853,18.56 202.117,18.56 C203.381,18.56 204.525,18.84 205.549,19.4 C206.573,19.96 207.381,20.76 207.973,21.8 C208.565,22.84 208.861,24.032 208.861,25.376 C208.861,26.72 208.557,27.912 207.949,28.952 C207.341,29.992 206.509,30.8 205.453,31.376 C204.413,31.936 203.261,32.216 201.997,32.216 Z M201.997,29.84 C202.701,29.84 203.357,29.672 203.965,29.336 C204.589,29 205.093,28.496 205.477,27.824 C205.861,27.152 206.053,26.336 206.053,25.376 C206.053,24.416 205.869,23.608 205.501,22.952 C205.133,22.28 204.645,21.776 204.037,21.44 C203.429,21.104 202.773,20.936 202.069,20.936 C201.365,20.936 200.709,21.104 200.101,21.44 C199.509,21.776 199.037,22.28 198.685,22.952 C198.333,23.608 198.157,24.416 198.157,25.376 C198.157,26.8 198.517,27.904 199.237,28.688 C199.973,29.456 200.893,29.84 201.997,29.84 Z" id="Shape" fill="#7F52CA"></path>
            <path d="M65.8504,15.32 L65.8504,17.552 L58.7704,17.552 L58.7704,22.472 L64.2904,22.472 L64.2904,24.704 L58.7704,24.704 L58.7704,32 L56.0344,32 L56.0344,15.32 L65.8504,15.32 Z M80.5059,25.064 C80.5059,25.56 80.4739,26.008 80.4099,26.408 L70.3059,26.408 C70.3859,27.464 70.7779,28.312 71.4819,28.952 C72.1859,29.592 73.0499,29.912 74.0739,29.912 C75.5459,29.912 76.5859,29.296 77.1939,28.064 L80.1459,28.064 C79.7459,29.28 79.0179,30.28 77.9619,31.064 C76.9219,31.832 75.6259,32.216 74.0739,32.216 C72.8099,32.216 71.6739,31.936 70.6659,31.376 C69.6739,30.8 68.8899,30 68.3139,28.976 C67.7539,27.936 67.4739,26.736 67.4739,25.376 C67.4739,24.016 67.7459,22.824 68.2899,21.8 C68.8499,20.76 69.6259,19.96 70.6179,19.4 C71.6259,18.84 72.7779,18.56 74.0739,18.56 C75.3219,18.56 76.4339,18.832 77.4099,19.376 C78.3859,19.92 79.1459,20.688 79.6899,21.68 C80.2339,22.656 80.5059,23.784 80.5059,25.064 Z M77.6499,24.2 C77.6339,23.192 77.2739,22.384 76.5699,21.776 C75.8659,21.168 74.9939,20.864 73.9539,20.864 C73.0099,20.864 72.2019,21.168 71.5299,21.776 C70.8579,22.368 70.4579,23.176 70.3299,24.2 L77.6499,24.2 Z M82.2864,25.328 C82.2864,24 82.5584,22.824 83.1024,21.8 C83.6624,20.776 84.4144,19.984 85.3584,19.424 C86.3184,18.848 87.3744,18.56 88.5264,18.56 C89.5664,18.56 90.4704,18.768 91.2384,19.184 C92.0224,19.584 92.6464,20.088 93.1104,20.696 L93.1104,18.776 L95.8704,18.776 L95.8704,32 L93.1104,32 L93.1104,30.032 C92.6464,30.656 92.0144,31.176 91.2144,31.592 C90.4144,32.008 89.5024,32.216 88.4784,32.216 C87.3424,32.216 86.3024,31.928 85.3584,31.352 C84.4144,30.76 83.6624,29.944 83.1024,28.904 C82.5584,27.848 82.2864,26.656 82.2864,25.328 Z M93.1104,25.376 C93.1104,24.464 92.9184,23.672 92.5344,23 C92.1664,22.328 91.6784,21.816 91.0704,21.464 C90.4624,21.112 89.8064,20.936 89.1024,20.936 C88.3984,20.936 87.7424,21.112 87.1344,21.464 C86.5264,21.8 86.0304,22.304 85.6464,22.976 C85.2784,23.632 85.0944,24.416 85.0944,25.328 C85.0944,26.24 85.2784,27.04 85.6464,27.728 C86.0304,28.416 86.5264,28.944 87.1344,29.312 C87.7584,29.664 88.4144,29.84 89.1024,29.84 C89.8064,29.84 90.4624,29.664 91.0704,29.312 C91.6784,28.96 92.1664,28.448 92.5344,27.776 C92.9184,27.088 93.1104,26.288 93.1104,25.376 Z M102.656,21.008 L102.656,28.328 C102.656,28.824 102.768,29.184 102.992,29.408 C103.232,29.616 103.632,29.72 104.192,29.72 L105.872,29.72 L105.872,32 L103.712,32 C102.48,32 101.536,31.712 100.88,31.136 C100.224,30.56 99.8961,29.624 99.8961,28.328 L99.8961,21.008 L98.3361,21.008 L98.3361,18.776 L99.8961,18.776 L99.8961,15.488 L102.656,15.488 L102.656,18.776 L105.872,18.776 L105.872,21.008 L102.656,21.008 Z M120.37,18.776 L120.37,32 L117.634,32 L117.634,30.44 C117.202,30.984 116.634,31.416 115.93,31.736 C115.242,32.04 114.506,32.192 113.722,32.192 C112.682,32.192 111.746,31.976 110.914,31.544 C110.098,31.112 109.45,30.472 108.97,29.624 C108.506,28.776 108.274,27.752 108.274,26.552 L108.274,18.776 L110.986,18.776 L110.986,26.144 C110.986,27.328 111.282,28.24 111.874,28.88 C112.466,29.504 113.274,29.816 114.298,29.816 C115.322,29.816 116.13,29.504 116.722,28.88 C117.33,28.24 117.634,27.328 117.634,26.144 L117.634,18.776 L120.37,18.776 Z M126.716,20.696 C127.116,20.024 127.644,19.504 128.3,19.136 C128.972,18.752 129.764,18.56 130.676,18.56 L130.676,21.392 L129.98,21.392 C128.908,21.392 128.092,21.664 127.532,22.208 C126.988,22.752 126.716,23.696 126.716,25.04 L126.716,32 L123.98,32 L123.98,18.776 L126.716,18.776 L126.716,20.696 Z M145.311,25.064 C145.311,25.56 145.279,26.008 145.215,26.408 L135.111,26.408 C135.191,27.464 135.583,28.312 136.287,28.952 C136.991,29.592 137.855,29.912 138.879,29.912 C140.351,29.912 141.391,29.296 141.999,28.064 L144.951,28.064 C144.551,29.28 143.823,30.28 142.767,31.064 C141.727,31.832 140.431,32.216 138.879,32.216 C137.615,32.216 136.479,31.936 135.471,31.376 C134.479,30.8 133.695,30 133.119,28.976 C132.559,27.936 132.279,26.736 132.279,25.376 C132.279,24.016 132.551,22.824 133.095,21.8 C133.655,20.76 134.431,19.96 135.423,19.4 C136.431,18.84 137.583,18.56 138.879,18.56 C140.127,18.56 141.239,18.832 142.215,19.376 C143.191,19.92 143.951,20.688 144.495,21.68 C145.039,22.656 145.311,23.784 145.311,25.064 Z M142.455,24.2 C142.439,23.192 142.079,22.384 141.375,21.776 C140.671,21.168 139.799,20.864 138.759,20.864 C137.815,20.864 137.007,21.168 136.335,21.776 C135.663,22.368 135.263,23.176 135.135,24.2 L142.455,24.2 Z M149.395,17.024 C148.899,17.024 148.483,16.856 148.147,16.52 C147.811,16.184 147.643,15.768 147.643,15.272 C147.643,14.776 147.811,14.36 148.147,14.024 C148.483,13.688 148.899,13.52 149.395,13.52 C149.875,13.52 150.283,13.688 150.619,14.024 C150.955,14.36 151.123,14.776 151.123,15.272 C151.123,15.768 150.955,16.184 150.619,16.52 C150.283,16.856 149.875,17.024 149.395,17.024 Z M150.739,18.776 L150.739,32 L148.003,32 L148.003,18.776 L150.739,18.776 Z M159.131,32.216 C158.091,32.216 157.155,32.032 156.323,31.664 C155.507,31.28 154.859,30.768 154.379,30.128 C153.899,29.472 153.643,28.744 153.611,27.944 L156.443,27.944 C156.491,28.504 156.755,28.976 157.235,29.36 C157.731,29.728 158.347,29.912 159.083,29.912 C159.851,29.912 160.443,29.768 160.859,29.48 C161.291,29.176 161.507,28.792 161.507,28.328 C161.507,27.832 161.267,27.464 160.787,27.224 C160.323,26.984 159.579,26.72 158.555,26.432 C157.563,26.16 156.755,25.896 156.131,25.64 C155.507,25.384 154.963,24.992 154.499,24.464 C154.051,23.936 153.827,23.24 153.827,22.376 C153.827,21.672 154.035,21.032 154.451,20.456 C154.867,19.864 155.459,19.4 156.227,19.064 C157.011,18.728 157.907,18.56 158.915,18.56 C160.419,18.56 161.627,18.944 162.539,19.712 C163.467,20.464 163.963,21.496 164.027,22.808 L161.291,22.808 C161.243,22.216 161.003,21.744 160.571,21.392 C160.139,21.04 159.555,20.864 158.819,20.864 C158.099,20.864 157.547,21 157.163,21.272 C156.779,21.544 156.587,21.904 156.587,22.352 C156.587,22.704 156.715,23 156.971,23.24 C157.227,23.48 157.539,23.672 157.907,23.816 C158.275,23.944 158.819,24.112 159.539,24.32 C160.499,24.576 161.283,24.84 161.891,25.112 C162.515,25.368 163.051,25.752 163.499,26.264 C163.947,26.776 164.179,27.456 164.195,28.304 C164.195,29.056 163.987,29.728 163.571,30.32 C163.155,30.912 162.563,31.376 161.795,31.712 C161.043,32.048 160.155,32.216 159.131,32.216 Z M170.344,21.008 L170.344,28.328 C170.344,28.824 170.456,29.184 170.68,29.408 C170.92,29.616 171.32,29.72 171.88,29.72 L173.56,29.72 L173.56,32 L171.4,32 C170.168,32 169.224,31.712 168.568,31.136 C167.912,30.56 167.584,29.624 167.584,28.328 L167.584,21.008 L166.024,21.008 L166.024,18.776 L167.584,18.776 L167.584,15.488 L170.344,15.488 L170.344,18.776 L173.56,18.776 L173.56,21.008 L170.344,21.008 Z M177.185,32.168 C176.689,32.168 176.273,32 175.937,31.664 C175.601,31.328 175.433,30.912 175.433,30.416 C175.433,29.92 175.601,29.504 175.937,29.168 C176.273,28.832 176.689,28.664 177.185,28.664 C177.665,28.664 178.073,28.832 178.409,29.168 C178.745,29.504 178.913,29.92 178.913,30.416 C178.913,30.912 178.745,31.328 178.409,31.664 C178.073,32 177.665,32.168 177.185,32.168 Z M180.958,25.376 C180.958,24.016 181.23,22.824 181.774,21.8 C182.334,20.76 183.102,19.96 184.078,19.4 C185.054,18.84 186.174,18.56 187.438,18.56 C189.038,18.56 190.358,18.944 191.398,19.712 C192.454,20.464 193.166,21.544 193.534,22.952 L190.582,22.952 C190.342,22.296 189.958,21.784 189.43,21.416 C188.902,21.048 188.238,20.864 187.438,20.864 C186.318,20.864 185.422,21.264 184.75,22.064 C184.094,22.848 183.766,23.952 183.766,25.376 C183.766,26.8 184.094,27.912 184.75,28.712 C185.422,29.512 186.318,29.912 187.438,29.912 C189.022,29.912 190.07,29.216 190.582,27.824 L193.534,27.824 C193.15,29.168 192.43,30.24 191.374,31.04 C190.318,31.824 189.006,32.216 187.438,32.216 C186.174,32.216 185.054,31.936 184.078,31.376 C183.102,30.8 182.334,30 181.774,28.976 C181.23,27.936 180.958,26.736 180.958,25.376 Z M201.997,32.216 C200.749,32.216 199.621,31.936 198.613,31.376 C197.605,30.8 196.813,30 196.237,28.976 C195.661,27.936 195.373,26.736 195.373,25.376 C195.373,24.032 195.669,22.84 196.261,21.8 C196.853,20.76 197.661,19.96 198.685,19.4 C199.709,18.84 200.853,18.56 202.117,18.56 C203.381,18.56 204.525,18.84 205.549,19.4 C206.573,19.96 207.381,20.76 207.973,21.8 C208.565,22.84 208.861,24.032 208.861,25.376 C208.861,26.72 208.557,27.912 207.949,28.952 C207.341,29.992 206.509,30.8 205.453,31.376 C204.413,31.936 203.261,32.216 201.997,32.216 Z M201.997,29.84 C202.701,29.84 203.357,29.672 203.965,29.336 C204.589,29 205.093,28.496 205.477,27.824 C205.861,27.152 206.053,26.336 206.053,25.376 C206.053,24.416 205.869,23.608 205.501,22.952 C205.133,22.28 204.645,21.776 204.037,21.44 C203.429,21.104 202.773,20.936 202.069,20.936 C201.365,20.936 200.709,21.104 200.101,21.44 C199.509,21.776 199.037,22.28 198.685,22.952 C198.333,23.608 198.157,24.416 198.157,25.376 C198.157,26.8 198.517,27.904 199.237,28.688 C199.973,29.456 200.893,29.84 201.997,29.84 Z" id="Shape" fill-opacity="0.2" fill="url(#linearGradient-2)"></path>
        </g>
    </g>
</svg>