<svg width="24" height="24" viewBox="0 0 24 24" fill="none" xmlns="http://www.w3.org/2000/svg">
<path d="M17.577 18.9999L12.81 14.2339C10.6539 15.6563 7.77106 15.2163 6.13737 13.2155C4.50369 11.2146 4.64914 8.30208 6.47405 6.47394C8.30186 4.64834 11.2148 4.50225 13.216 6.13583C15.2173 7.7694 15.6576 10.6525 14.235 12.8089L19 17.5769L17.577 18.9999ZM10.034 7.01394C8.5933 7.01303 7.35253 8.02996 7.07053 9.44285C6.78854 10.8557 7.54386 12.271 8.87457 12.8233C10.2053 13.3755 11.7408 12.9108 12.542 11.7134C13.3433 10.516 13.1871 8.91941 12.169 7.89994C11.6043 7.33129 10.8355 7.01224 10.034 7.01394Z" fill="#AAAAAA"/>
</svg>
