<svg width="351" height="191" fill="none" xmlns="http://www.w3.org/2000/svg"><path d="M314.344 131.206h-53.506c-5.155 0-9.334 3.731-9.334 8.334v41.832c0 4.602 4.179 8.333 9.334 8.333h53.506c5.155 0 9.334-3.731 9.334-8.333V139.54c0-4.603-4.179-8.334-9.334-8.334z" fill="#FFDA63"/><path d="M268.456 116.581h-53.507c-5.154 0-9.333 3.731-9.333 8.334v56.457c0 4.602 4.179 8.333 9.333 8.333h53.507c5.155 0 9.333-3.731 9.333-8.333v-56.457c0-4.603-4.178-8.334-9.333-8.334z" fill="#FFDA63"/><path d="M212.995 137.605h-53.507c-5.155 0-9.333 3.731-9.333 8.333v35.434c0 4.602 4.178 8.333 9.333 8.333h53.507c5.154 0 9.333-3.731 9.333-8.333v-35.434c0-4.602-4.179-8.333-9.333-8.333z" fill="#FFDA63"/><path fill-rule="evenodd" clip-rule="evenodd" d="M153.632 172.237s3.188 5.75.574 7.562c-2.617 1.812-9.532 5.209-9.532 5.209l18.319-1.028-4.072-12.541-5.289.798z" fill="#F8AE9D"/><path fill-rule="evenodd" clip-rule="evenodd" d="M161.179 177.44c-.577.246.371 2.556-1.657 2.394-2.028-.162-3.301-2.55-4.797-2.395-1.496.155-2.445 2.56-5.292 4.235-2.848 1.675-7.069 3.673-6.786 5.357.283 1.685 6.926 2.136 10.291 1.578 3.366-.557 4.937-1.765 7.12-1.669 2.184.097 3.556-.142 4.24-1.394.684-1.252-2.454-8.389-3.119-8.106zm20.05-55.884c-5.546.222-36.415 6.317-42.024 7.353-5.608 1.036-10.35 6.64-6.073 13.129 4.803 7.285 17.197 27.973 20.206 32.637 1.489 2.308 9.003 1.014 7.238-2.861-3.29-7.222-4.818-25.365-13.206-31.981 0 0 28.209 4.384 40.395-.637 8.856-3.65 6.853-18.174-6.536-17.64z" fill="#3F3D56"/><path fill-rule="evenodd" clip-rule="evenodd" d="M142.538 90.645s.063-2.944-1.515-5.05c-1.579-2.106-1.642-4.343-2.836-4.27-1.195.074-.012 5.273-.012 5.273s-1.516-.517-2.605-1.171-4.391-3.879-5.163-3.307c-1.308.973.799 6.465 1.947 7.563 1.152 1.098 6.835 4.167 6.835 4.167l16.736 15.054 2.503-7.992-15.89-10.267z" fill="#F8AE9D"/><path fill-rule="evenodd" clip-rule="evenodd" d="M176.014 89.316c-2.579 5.343-7.303 15.158-9.251 18.086-2.44 3.667-6.289 5.283-10.795 2.562-.943-.569-3.65-2.56-3.65-2.56.4-3.486 1.858-6.399 4.372-8.741l1.708 1.261s4.842-11.082 8.737-17.502c3.373-5.554 12.807-1.23 8.879 6.894zm11.152-20.74v4.728l3.888-2.795s1.195-4.53 2.167-7.894c.61-2.11 2.095-9.25-3.884-8.915-4.897-7.709-19.161-2.938-19.275 6.48-.136 11.327-.025 15.737-.025 15.737 8.066.413 12.606-.628 17.129-7.34z" fill="#3F3D56"/><path fill-rule="evenodd" clip-rule="evenodd" d="M191.139 77.578s-3.618-.758-3.743-6.05-.038-7.098-.038-7.098l-7.967-.129s-.087 5.898-.088 8.031c-.004 5.187-4.275 5.612-4.275 5.612s.729 4.28 7.949 4.642c5.637.284 8.162-5.008 8.162-5.008z" fill="#F8AE9D"/><path fill-rule="evenodd" clip-rule="evenodd" d="M189.216 61.787c3.554-.123 2.975 4.523-.718 4.517 0 0-2.145 6.6-9.59 6.6-6.047 0-6.44-7.693-6.495-9.227-.059-1.636-.066-7.011-.066-7.011l17.007-.007-.138 5.128z" fill="#F8AE9D"/><path fill-rule="evenodd" clip-rule="evenodd" d="M189.491 61.756c-1.473.217-1.295 1.088-1.695 1.012-2.034-.386-10.267.123-11.327-3.919-1.318 2.525-1.641 3.146-4.545 3.824v-7.4l18.369-1.573s-.285 7.98-.802 8.056z" fill="#3F3D56"/><path fill-rule="evenodd" clip-rule="evenodd" d="M190.329 77.037c-4.539 2.482-9.786 3.392-14.672.696-7.972 14.036-9.959 30.782-8.042 49.291 11.626 4.109 21.396 3.301 29.714-1.396l-7-48.591z" fill="#FFDA63"/><path fill-rule="evenodd" clip-rule="evenodd" d="M133.759 172.468s.096 6.768-6.15 9.298c-6.242 2.53-10.69 2.378-10.123 4.334.566 1.956 16.813 1.877 18.33.348 1.294-1.302 4.106-13.42 4.88-12.494l-6.937-1.486z" fill="#F8AE9D"/><path fill-rule="evenodd" clip-rule="evenodd" d="M138.295 182.026c-.957-.615-1.762 2.931-4.362 1.945s-.55-4.246-2.186-4.847-4.796 2.631-8.992 3.417c-4.197.785-7.604 1.472-8.573 2.931-.834 1.253 0 1.654 0 1.654s4.04 1.801 6.551 2.198c3.647.576 14.186.959 15.341-.091.71-.644 2.7-6.899 2.221-7.207zm60.312-62.562s8.063 15.204-3.268 20.426c-10.959 5.048-43.765-.923-43.765-.923s.586 4.214 0 7.972c-1.532 9.816-8.813 26.171-10.354 28.226-2.13 2.841-8.62.698-8.742-1.668-.123-2.366 4.892-32.587 5.655-38.349.758-5.763 3.153-6.6 10.149-8.176 1.607-.362 20.612-4.579 22.354-4.456 14.959 1.056 27.971-3.052 27.971-3.052z" fill="#3F3D56"/><path fill-rule="evenodd" clip-rule="evenodd" d="M190.131 77.048c-7.518 21.989-12.027 53.163 11.453 47.74-12.473-20.504 4.483-29.733.64-40.33-1.314-3.623-11.995-7.695-12.093-7.41zm-14.076.531c-2.869 6.425-4.248 11.466-5.535 20.896-1.073 7.855-.536 24.063-.536 24.063l-3.545.622s-2.535-25.04-1.688-28.265c1.423-5.41 2.386-8.57 4.264-13.517 1.034-2.714 7.04-3.799 7.04-3.799z" fill="#3F3D56"/><path fill-rule="evenodd" clip-rule="evenodd" d="M188.553 102.011s-4.629-4.138-6.232-4.619c-1.603-.48-10.385-1.057-10.325.028.067 1.163 5.718 1.096 6.24 1.668.523.572 1.249 5.024 3.224 5.462 1.972.44 6.058 1.739 6.058 1.739l18.189 8.391-1.938-8.39-15.216-4.279z" fill="#F8AE9D"/><path fill-rule="evenodd" clip-rule="evenodd" d="M202.485 84.489c5.517 6.952 10.228 17.543 12.036 21.672 1.808 4.129-.016 10.356-7.967 9.134-.946-.146-2.486-.681-2.486-.681-2.924-3.578-3.436-6.65-2.345-9.385l1.028.388s-7.903-12.507-9.833-15.86c-3.222-5.599 4.707-11.394 9.567-5.268z" fill="#3F3D56"/><path fill-rule="evenodd" clip-rule="evenodd" d="M201.853 48.7c0-.664.295-1.3.82-1.768a2.98 2.98 0 011.98-.732h22.553a2.98 2.98 0 011.98.732c.525.469.82 1.104.82 1.768v14.195c0 .663-.295 1.298-.82 1.767a2.98 2.98 0 01-1.98.733h-18.247c-.284 0-.562.077-.795.221l-5.579 3.44a.505.505 0 01-.482.027.451.451 0 01-.182-.154.385.385 0 01-.068-.215V48.7z" fill="#FFDA63"/><path d="M209.486 52.638a.992.992 0 00-.66.244.792.792 0 00-.274.59v.08c0 .221.099.434.274.59a.993.993 0 00.66.244h12.887a.994.994 0 00.66-.244.79.79 0 00.273-.59v-.08a.79.79 0 00-.273-.59.994.994 0 00-.66-.244h-12.887zm0 4.57a.992.992 0 00-.66.245.792.792 0 00-.274.59v.08c0 .22.099.433.274.589a.993.993 0 00.66.244h7.768a.993.993 0 00.66-.244.792.792 0 00.274-.59v-.08a.792.792 0 00-.274-.59.992.992 0 00-.66-.243h-7.768z" fill="#fff" stroke="#fff" stroke-width="2"/><path fill-rule="evenodd" clip-rule="evenodd" d="M307.262 39.583c0-.663.295-1.299.82-1.767a2.979 2.979 0 011.98-.733h22.553a2.98 2.98 0 011.98.733c.525.468.82 1.104.82 1.767v14.195c0 .663-.295 1.3-.82 1.768a2.98 2.98 0 01-1.98.732h-18.247c-.284 0-.562.077-.796.222l-5.578 3.44a.504.504 0 01-.482.026.446.446 0 01-.183-.153.384.384 0 01-.067-.216V39.584z" fill="#FFDA63"/><path d="M314.895 43.522a.992.992 0 00-.66.244.788.788 0 00-.274.59v.08c0 .221.098.433.274.59a.992.992 0 00.66.244h12.887a.991.991 0 00.659-.245.791.791 0 00.274-.589v-.08a.791.791 0 00-.274-.59.991.991 0 00-.659-.244h-12.887zm0 4.57a.992.992 0 00-.66.244.788.788 0 00-.274.59v.08c0 .221.098.433.274.59a.992.992 0 00.66.244h7.768a.994.994 0 00.66-.245.79.79 0 00.273-.589v-.08a.79.79 0 00-.273-.59.994.994 0 00-.66-.244h-7.768z" fill="#fff" stroke="#fff" stroke-width="2"/><path fill-rule="evenodd" clip-rule="evenodd" d="M32.937 9.853c0-.664-.295-1.3-.82-1.768a2.98 2.98 0 00-1.98-.732H7.585a2.98 2.98 0 00-1.98.732c-.525.469-.82 1.104-.82 1.768v14.194c0 .664.295 1.3.82 1.768a2.98 2.98 0 001.98.732H25.83c.284 0 .562.078.796.222l5.578 3.44a.513.513 0 00.482.026.449.449 0 00.183-.153.384.384 0 00.067-.215V9.853z" fill="#FFDA63"/><path d="M25.304 13.791c.248 0 .485.088.66.244a.791.791 0 01.273.59v.08a.791.791 0 01-.273.59.993.993 0 01-.66.244H12.417a.993.993 0 01-.66-.244.791.791 0 01-.273-.59v-.08c0-.221.098-.433.273-.59a.993.993 0 01.66-.244h12.887zm0 4.57c.248 0 .485.088.66.245a.79.79 0 01.273.589v.08a.791.791 0 01-.273.59.993.993 0 01-.66.244h-7.769a.993.993 0 01-.66-.244.791.791 0 01-.273-.59v-.08a.79.79 0 01.273-.59.993.993 0 01.66-.243h7.769z" fill="#fff" stroke="#fff" stroke-width="2"/><path fill-rule="evenodd" clip-rule="evenodd" d="M113.812 46.415c0-.663.295-1.3.82-1.768a2.979 2.979 0 011.98-.732h22.553c.742 0 1.454.263 1.98.732.525.469.82 1.105.82 1.768V60.61c0 .663-.295 1.298-.82 1.767a2.982 2.982 0 01-1.98.733h-18.247c-.284 0-.561.077-.796.22l-5.578 3.441a.513.513 0 01-.482.026.459.459 0 01-.183-.153.383.383 0 01-.067-.215V46.415z" fill="#FFDA63"/><path d="M121.445 50.353a.992.992 0 00-.66.244.792.792 0 00-.274.59v.08c0 .221.099.433.274.59a.992.992 0 00.66.243h12.887a.994.994 0 00.66-.244.79.79 0 00.273-.589v-.08a.79.79 0 00-.273-.59.994.994 0 00-.66-.244h-12.887zm0 4.57a.992.992 0 00-.66.244.792.792 0 00-.274.59v.08c0 .221.099.433.274.59a.993.993 0 00.66.244h7.768a.993.993 0 00.66-.244.792.792 0 00.274-.59v-.08a.792.792 0 00-.274-.59.992.992 0 00-.66-.244h-7.768z" fill="#fff" stroke="#fff" stroke-width="2"/><path d="M64.196 22.518c-.313 1.115.102 2.274.785 3.248.483.689 1.159-.071 2.143-.193 1.523-.19 2.488-1.63 2.817-5.137.153-2.561.08-3.84-.08-4.063-.568-.8-2.031-1.068-3.185-.99" fill="#3F3D56"/><path fill-rule="evenodd" clip-rule="evenodd" d="M66.961 174.939s-.092 5.266 3.548 7.137c3.64 1.871 9.28 5.346 9.28 5.346l-21.455.646.611-13.177 8.016.048z" fill="#F8AE9D"/><path fill-rule="evenodd" clip-rule="evenodd" d="M57.585 180.742l-.349 8.543h4.984l.341-1.1s1.877-.068 2.96.407c1.147.503 1.301.747 1.301.747l15.808.029s.78-2.761-4.04-4.758c-4.818-1.998-8.326-4.833-8.993-5.124-.67-.292-2.026-.457-2.98.23-.953.686-1.707 2.492-3.869 2.549-2.781.073-4.38-2.968-5.163-1.523zm-6.161-91.753s5.856 44.367 6.038 47.451c.182 3.084-1.88 8.407-1.84 14.176.04 5.769.753 26.102.753 26.102l12.918.187s5.43-36.742 5.488-42.252c.058-5.509.556-45.133.556-45.133l-23.913-.53z" fill="#3F3D56"/><path fill-rule="evenodd" clip-rule="evenodd" d="M35.622 174.013l-2.518 13.651 9.281-.041.294-13.824-7.057.214z" fill="#F8AE9D"/><path fill-rule="evenodd" clip-rule="evenodd" d="M34.055 180.028c-.279.054-.53.19-.712.386-.183.195-.287.44-.297.695l-.094 2.552c-1.33 1.322-1.95 5.174-2 5.502a.204.204 0 00-.003.047c.123 1.877 13.932 1.841 14.993.056a.233.233 0 00.023-.167c-.114-.631-.869-4.519-2.356-5.561l-.01-2.523c-.002-.251-.095-.495-.266-.694a1.298 1.298 0 00-.683-.407l-1.947-.468c-1.357-1.771-3.205-1.708-4.79.222l-1.858.36zm6.124-90.62s-4.136 30.269-4.08 36.066c.056 5.797 1.273 8.343-.459 12.501-1.732 4.158-3.208 37.35-3.208 37.35l12.805.953s8.18-35.518 9.07-40.442c.89-4.924 11.885-46.847 11.885-46.847l-26.013.418z" fill="#3F3D56"/><path fill-rule="evenodd" clip-rule="evenodd" d="M104.032 34.981s-1.069-5.32-.684-6.397c.328-.93 3.432-2.274 3.432-2.274s5.398-7.613 6.579-6.838c.961.629-2.811 6.242-2.811 6.242s3.44 3.222 3.392 4.662c-.048 1.44-5.615 5.95-5.615 5.95l-4.293-1.345zm-55.48 1.25s3.556-.745 3.68-5.946c.123-5.201.036-6.976.036-6.976l8.428-.127s.085 5.797.087 7.893c.003 4.565 3.8 5.798 3.8 5.798s-.316 4.991-7.411 5.347c-5.54.28-8.62-5.989-8.62-5.989z" fill="#F8AE9D"/><path fill-rule="evenodd" clip-rule="evenodd" d="M51.494 20.68c-3.493-.121-2.923 4.445.706 4.439 0 0 3.9 7.001 10.022 7.02 2.95.008 3.913-2.337 4.797-3.984.884-1.647 1.533-4.11 1.587-5.618.058-1.608.065-6.89.065-6.89l-17.313-.008.136 5.04z" fill="#F8AE9D"/><path fill-rule="evenodd" clip-rule="evenodd" d="M64.716 36.564s9.082 2.531 11.269 5.554c7.048 5.53 15.862 13.12 15.862 13.12s8.396-18.814 11.141-20.959c1.878-1.468 5.62.347 6.317 2.212.896 2.396-4.855 16.447-7.571 23.084-.526 1.285-.938 2.292-1.166 2.883-1.656 4.29-5.685 6.75-10.589 4.024-1.976-1.1-7.858-4.7-12.876-7.965-.08 3.43-.211 7.044-.337 10.476-.305 8.34-.57 15.607.068 16.552 3.165 4.68-1.043 7.893-14.976 9.074-13.934 1.18-26.295.214-24.052-6.032.468-1.302.462-4.104.229-7.743-1.365-.065-2.73-.146-4.092-.241-5.816-.41-10.116-2.64-10.716-8.434-.42-4.057 8.238-23.105 11.484-29.368.759-1.466 1.934-2.378 3.264-2.833.31-.308.658-.525 1.05-.64 2.385-.702 10.934-3.91 10.934-3.91L60.13 41.36l4.586-4.796zM37.093 70.093l-.023.052.028.004-.005-.056z" fill="#FFDA63"/><path fill-rule="evenodd" clip-rule="evenodd" d="M59.66 75.12s3.101-.557 4.371-1.447c1.27-.89 5.114-1.519 5.114-1.519l-1.23 2.313s9.424-.79 9.647.04c.223.83-2.502 1.733-2.502 1.733s-1.344 2.241-2.645 3.54c-1.232 1.23-7.348 1.084-9.493.316-1.852-.663-3.867-.331-3.867-.331l.605-4.645z" fill="#F8AE9D"/><path d="M52.443 15.855c.51.596 1.411.727 2.152.845.997.159 1.49.49 2.007 1.376.328.566.656 1.186 1.242 1.493.477.251.463-.384.533-.875.007-.046.017-.091.03-.136.115-.392.58-.327.716.06.124.35.39.647.728.813.055.026.114.05.172.04.08-.01.141-.077.193-.138a4.51 4.51 0 00.325-.455c.365-.56 1.06-.364 1.469.172.255.333.558.677.975.755.135.027.304.007.366-.111.08-.145-.045-.29-.024-.439.017-.138.083-.198.155-.316.282-.455.937-.472 1.336-.093.277.264.567.517.868.76.127.101.313.202.441.101.07-.054.086-.145.1-.232.072-.428.141-.857.214-1.285.041-.24.183-.553.424-.492.117.03.186.142.252.243.08.128 1.496 1.587 1.524 1.476.22-.83.672-1.584.893-2.413 1.428-5.336-4.907-9.627-9.745-9.65-1.076-.007-2.06.009-3.104.235-1.114.242-2.29.628-3.3 1.17-1.417.759-2.49 2.137-2.214 3.782" fill="#3F3D56"/><path d="M56.378 14.13c.682.697.862 1.677.926 2.603.093 1.396-.033 2.847-.75 4.087-.203.352-.354 2.099-.668 2.002-.1-.03-.084-1.384-.348-2.114-.408-1.131-2.287-1.563-3.133-.848-1.351 1.137-.559 2.519-.111 3.378.268.52.693 1.101.766 1.65.09.703.117 3.263-.391 3.86-.425.501-.876-1.918-1.261-2.394-2.846-3.55-5.575-12.589-.716-14.55.74-.298 3.02-.452 3.712-.072" fill="#3F3D56"/><path d="M337.82 138.387c3.67-1.107 6.851-3.465 8.709-6.49.524-.835.953-1.793.812-2.741-.036-.194-.091-.422-.286-.512-.175-.09-.411-.041-.608.009-6.131 1.477-12.612 3.966-19.047 3.703-.294-.004-.588-.026-.845.076-.316.118-.518.379-.659.657-.487.905-.909 2.617-.749 3.636.195 1.212 1.507 1.387 2.661 1.649 3.285.745 6.736 1.003 10.012.013z" fill="#F8AE9D"/><path d="M338.387 131.593c.493-.185 1.007-.371 1.537-.382.53-.01 1.115.243 1.284.701.113.317.008.649-.134.945-.386.766-1.064 1.388-1.78 1.939-2.744 2.066-6.26 3.316-9.856 3.512-1.592.084-3.258-.044-4.66-.712.7-.761.561-1.85.637-2.813.225-2.819 2.915-1.748 5.075-1.754 2.71-.051 5.407-.523 7.897-1.436z" fill="#F8AE9D"/><path d="M256.249 110.743l-.123.314c-.862 2.232-1.53 4.536-1.805 6.899-.506 4.34.448 9.419 4.105 12.571 4.875 4.202 12.697 4.852 19.055 3.851 2.603-.406 5.053-1.378 7.135-2.83 2.072 1.676 4.299 3.511 6.152 5.377a49.298 49.298 0 0010.543-4.695c7.759 3.172 15.674 5.313 24.03 6.864a26.57 26.57 0 001.997-6.599c.065-.367-5.143-3.505-5.744-3.951-1.802-1.357-5.558-4.458-5.558-4.458s4.733-3.599 6.804-5.288a94.531 94.531 0 006.297-5.524c1.657-1.59 3.275-3.269 4.291-5.253 1.015-1.967 1.388-4.293.54-6.338-2.68-6.364-13.495-4.127-18.52-1.933-4.153 1.819-7.791 4.469-11.291 7.155-1.412 1.068-2.805 2.171-4.179 3.257-1.082-.997-2.277-2.292-3.299-3.34-1.1-1.137-2.358-2.206-3.878-2.875-1.597-.723-3.072-.62-4.776-.836-.764-.098-1.506-.301-2.251-.416a10.656 10.656 0 00-6.554 1.05c-1.862.974-3.374 2.128-5.559 2.502-2.481.422-5.363.172-7.851-.125-2.233-.275-4.503-.727-6.728-.336-.925.163-1.279 1.314-1.584 1.976-.409.959-.838 1.952-1.249 2.981zm19.714-73.405s-6.007-.853-7.62 8.615c-1.792 10.526-6.578 8.794-14.179 17.34-4.441 4.995.233 13.815 9.732 13.64 9.5-.17 18.078-2.623 23.543-1.574 5.464 1.049 5.764-11.447.372-15.302-5.391-3.855 6.104-14.927-.9-19.857-7.005-4.93-10.948-2.862-10.948-2.862z" fill="#3F3D56"/><path d="M240.058 79.088c-.548-1.005-.515-2.173-.317-3.263.856-4.677 4.527-8.585 8.735-11.449 4.221-2.871 9.053-4.921 13.494-7.494 1.153-.67 2.308-1.392 3.632-1.754 1.323-.362 2.861-.323 3.954.439.772.535 1.217 1.361 1.477 2.188.569 1.81.351 3.727.004 5.564-.434 2.316-1.07 4.609-2.116 6.738-.838 1.717-2.202 3.484-4.252 3.82-.593 2.053-1.814 3.977-3.528 5.448-1.959 1.688-4.443 2.791-7.021 3.562-2.376.711-4.974 1.176-7.363.512-1.418-.387-2.667-1.132-3.889-1.89-1.09-.647-2.221-1.355-2.81-2.421zm21.468-3.12l1.402-1.987c-.298.028-.581.08-.866.183-.769.297-1.233 1.38-.536 1.805z" fill="#3F3D56"/><path d="M287.511 45.665c.072.351.086.72.059 1.14a21.312 21.312 0 01-1.751 7.163c-.612 1.358-1.361 2.698-2.421 3.823-.44.467-.938.899-1.589 1.065-.67.166-1.515.19-2.18.04-.586 2.166-.341 6.253 1.753 7.789.64.465 1.4.755 2.161 1.011 1.484.511 3.028.9 4.574 1.201 1.761.34 3.68.594 4.917 1.75.155.142.308.337.246.529-.041.122-.141.209-.26.277-.974.705-2.178 1.092-3.382 1.462-2.111.637-4.279 1.168-6.484 1.524-2.303.372-4.681.55-7.014.326-1.803-.183-3.582-.593-5.219-1.316-1.715-.759-3.471-1.379-5.245-2.104-1.501-.616-2.981-1.32-4.606-1.57.768-1.304 2.37-2.036 3.966-2.383 1.596-.328 3.265-.358 4.88-.635.531-.097 1.063-.213 1.52-.505 1.25-.807.908-2.6.928-3.773l.063-3.715c-.186-1.773-1.005-3.257-1.723-4.879-1.096-2.486-1.323-5.311-.357-7.857.965-2.529 3.163-4.725 5.985-5.616 2.822-.89 6.21-.389 8.377 1.463 1.374 1.193 2.494 2.26 2.802 3.79z" fill="#F8AE9D"/><path d="M278.831 37.765c2.813-.28 5.376.95 7.277 2.856 1.599 1.598 2.539 3.708 2.492 5.828-.007.302-.046.632-.237.904-.508.652-1.613.412-2.439.122-1.347-.465-2.349-1.143-3.57-1.716-1.222-.573-2.704-.489-3.797-1.28-1.031-.761-4.573-2.367-4.669-3.608-.12-1.516 2.992-2.756 4.293-3.008.186-.051.403-.075.65-.098z" fill="#3F3D56"/><path d="M270.727 41.198c-2.379 1.37-3.495 3.77-3.619 6.32a8.03 8.03 0 002.193 5.922c.22.23.483.465.823.568.856.218 1.542-.59 1.977-1.282.715-1.12 1.012-2.212 1.553-3.344.541-1.133 1.749-1.904 2.037-3.134.26-1.172 1.87-4.415 1.066-5.43-.981-1.244-4.269-.448-5.457.09-.18.065-.365.169-.573.29z" fill="#3F3D56"/><path d="M291.885 70.105a.954.954 0 011.075.26c2.807 3.51 3.89 7.906 4.839 12.143 1.076 4.817 2.035 9.65 2.954 14.483.054.246.089.51-.033.736-.121.226-.398.345-.655.447-1.622.696-3.263 1.375-4.884 2.072a44.387 44.387 0 01-3.757-11.111c-1.041 2.352-2.921 4.395-5.32 5.73 1.787 2.285 3.987 6.854 6.132 8.864.328.32 2.358-.178 2.812-.312.282.722-1.039-.05-1.032.687-1.22.158-2.78-.494-4.034-.634a23.322 23.322 0 00-4.553-.026 21.89 21.89 0 00-7.2 2.006 26.122 26.122 0 00-3.192 1.797c-.873.584-3.036 1.957-3.036 1.957-.159.103-.903-.048-1.079-.085a22.213 22.213 0 00-1.548-.179 40.942 40.942 0 01-3.879-.455 40.906 40.906 0 01-7.505-1.96c-.233-.161.598-1.693.643-1.99-.044.28-4.809-.065-5.279-.141-1.879-.342-3.78-.525-5.658-.884.841-6.754 3.151-13.278 5.42-19.75.888-2.547 1.795-5.094 3.053-7.496a30.18 30.18 0 015.146-7.081.293.293 0 01.237-.068c.997.225 7.078 1.622 10.104 2.627 1.542.529 3.105 1.006 4.687 1.483.625.184 1.269.368 1.918.36.432-.012.865-.095 1.279-.177 4.215-.836 8.431-1.743 12.345-3.303z" fill="#FFDA63"/><path d="M264.448 83.563c-.173.962-.406 1.94-.639 2.9a47.097 47.097 0 01-2.17 6.422 49.656 49.656 0 01-1.447 3.1 56.616 56.616 0 01-.81 1.514c-.142.244-.284.505-.426.748-.121.209-.262.4-.383.59.845-.023 5.013.192 5.876.256" stroke="#fff" stroke-width="1.376" stroke-miterlimit="10" stroke-linecap="round"/><path d="M264.584 99.848c-.088.493-.194.982-.32 1.468l-.378 1.468c-.125.419-.409.941-.416 1.379.001-.088 3.343-.34 3.657-.371 3.48-.304 6.978-.484 10.456-.682 2.26-.127 4.477-.08 6.735-.067.667.009 1.453-.05 1.815-.536.301-.417.055-.946.298-1.328.156.037 1.975.447 1.955.412.073.369.217 1.142.645 1.323.157.055.314.075.47.077.236.003.472-.029.708-.061a.162.162 0 00.099-.033c.04-.035.002-.088-.037-.141a3.862 3.862 0 01-.803-2.395 11.282 11.282 0 01-1.61-1.161c-.387-.356-.673-.815-1.1-1.12-.446-.338-.881-.134-1.374-.018-.57.114-1.136.247-1.695.398-1.085.3-2.171.671-3.084 1.273-.318.206-.616.43-.99.53-.356.1-.748.095-1.121.09-2.296-.049-4.591-.15-6.865-.374-2.332-.224-3.923-.194-6.979-.603 0 .017-.002.175-.066.472z" fill="#F8AE9D"/><path d="M289.869 83.368a49.77 49.77 0 011.213 6.441" stroke="#fff" stroke-width="1.376" stroke-miterlimit="10" stroke-linecap="round"/><path d="M336.164 79.873l-6.738 26.832-51.168-.694c.027-1.577 1.482-2.855 3.268-2.831l12.228.166 6.093-24.684c.094-.388.335-.735.683-.983.347-.247.78-.38 1.225-.376l32.541.442c1.236.034 2.142 1.045 1.868 2.128z" fill="#3F3D56"/><path d="M269.323 145.433c.236-1.224.905-2.477 1.533-3.573 2.589-4.487 7.217-7.649 12.201-9.825.514-.221 1.028-.442 1.561-.61a1.379 1.379 0 00-.12.174l-.001.017h-.019c.059-.034.099-.069.158-.103 2.014 1.622 4.163 3.404 5.998 5.199-1.213.878-2.972 1.59-3.846 2.175-2.064 1.356-4.052 2.802-6.194 4.07-2.876 1.731-5.94 2.986-9.366 3.536-1.318.21-2.009.429-1.994-.483.022-.14.045-.332.089-.577z" fill="#F8AE9D"/><path d="M272.662 141.903c1.334-2.243 3.405-3.95 5.669-5.463 1.588-1.065 3.273-2.023 4.88-3.001.456-.274 1.352-1.016 2.124-1.373 1.607 1.301 3.252 2.673 4.74 4.096-4.914 2.667-9.293 6.149-14.684 8.039-.494.168-1.007.337-1.537.347-.53.01-1.096-.19-1.404-.58-.48-.603-.172-1.422.212-2.065z" fill="#F8AE9D"/><path d="M229.983 91.23c-2.653 1.63-6.704.49-6.704.49s.251-3.785 2.906-5.414c2.652-1.63 6.703-.491 6.703-.491s-.252 3.785-2.905 5.415z" fill="url(#paint0_linear)"/><path d="M340.293 156.983c3.008-1.839 3.305-6.124 3.305-6.124s-4.579-1.301-7.586.54c-3.007 1.839-3.305 6.122-3.305 6.122s4.579 1.301 7.586-.538z" fill="url(#paint1_linear)"/><path d="M3.756 103.538c4.817 4.378 13.825 3.454 13.825 3.454s1.192-8.02-3.63-12.395C9.134 90.22.131 91.14.131 91.14s-1.192 8.02 3.625 12.398z" fill="url(#paint2_linear)"/><path d="M53.65 74.187c-4.179 0-7.567-3.025-7.567-6.756 0-3.732 3.388-6.756 7.567-6.756 4.18 0 7.567 3.024 7.567 6.756 0 3.731-3.388 6.756-7.567 6.756z" fill="#FFDA63"/><path d="M24.231 170.053c-2.259 0-4.09-1.635-4.09-3.652 0-2.017 1.831-3.652 4.09-3.652 2.26 0 4.09 1.635 4.09 3.652 0 2.017-1.83 3.652-4.09 3.652z" fill="#fff"/><path d="M111.974 83.593c-1.812 0-3.28-1.312-3.28-2.93 0-1.617 1.468-2.928 3.28-2.928 1.812 0 3.281 1.311 3.281 2.929 0 1.617-1.469 2.929-3.281 2.929zM283.695 3.75c-1.16 0-2.1-.84-2.1-1.875 0-1.036.94-1.875 2.1-1.875 1.16 0 2.1.84 2.1 1.875 0 1.036-.94 1.875-2.1 1.875z" fill="#E1E4E5"/><path d="M19.127 152.312c.468 1.56-.569 3.164-2.316 3.582-1.748.418-3.544-.508-4.012-2.068-.468-1.56.569-3.164 2.316-3.582 1.748-.418 3.544.508 4.012 2.068z" fill="#fff"/><path d="M166.797 32.958c-2.406 0-4.357-1.742-4.357-3.89 0-2.15 1.951-3.891 4.357-3.891s4.357 1.742 4.357 3.89c0 2.149-1.951 3.89-4.357 3.89z" fill="#E1E4E5"/><path d="M120.748 171.185c-1.851 0-3.352-1.071-3.352-2.394 0-1.322 1.501-2.394 3.352-2.394s3.352 1.072 3.352 2.394c0 1.323-1.501 2.394-3.352 2.394zM345.151 183.67c-2.708 1.18-5.749.589-6.792-1.32-1.043-1.909.307-4.412 3.015-5.592 2.708-1.179 5.749-.588 6.792 1.32 1.043 1.909-.307 4.413-3.015 5.592z" fill="#fff"/><path d="M254.529 34.792c0 1.725-1.567 3.125-3.5 3.125s-3.5-1.4-3.5-3.125c0-1.726 1.567-3.125 3.5-3.125s3.5 1.399 3.5 3.125zM343.999 64.48h.087c.52 6.57 5.991 6.67 5.991 6.67s-6.033.106-6.033 7.696c0-7.59-6.034-7.696-6.034-7.696s5.47-.1 5.989-6.67zM221.15 20.15h.088c.52 6.568 5.991 6.67 5.991 6.67s-6.033.105-6.033 7.695c0-7.59-6.034-7.696-6.034-7.696s5.469-.101 5.988-6.67zM127.857 9.18h.063c.374 4.808 4.32 4.881 4.32 4.881s-4.351.077-4.351 5.631c0-5.554-4.351-5.63-4.351-5.63s3.944-.074 4.319-4.881zM15.801 47.084h.063c.375 4.807 4.32 4.881 4.32 4.881s-4.35.077-4.35 5.631c0-5.554-4.351-5.63-4.351-5.63s3.944-.075 4.318-4.882z" fill="#E1E4E5"/><defs><linearGradient id="paint0_linear" x1="219.65" y1="96.58" x2="238.068" y2="74.838" gradientUnits="userSpaceOnUse"><stop stop-color="#fff"/><stop offset="1" stop-color="#EEE"/></linearGradient><linearGradient id="paint1_linear" x1="350.823" y1="149.413" x2="320.219" y2="163.572" gradientUnits="userSpaceOnUse"><stop stop-color="#fff"/><stop offset="1" stop-color="#EEE"/></linearGradient><linearGradient id="paint2_linear" x1="22.976" y1="118.491" x2="-6.517" y2="66.71" gradientUnits="userSpaceOnUse"><stop stop-color="#fff"/><stop offset="1" stop-color="#EEE"/></linearGradient></defs></svg>